<svg width="14" height="14" viewBox="0 0 14 14" fill="none" xmlns="http://www.w3.org/2000/svg">
<path d="M3.5448 14C2.77276 14 2.04692 13.6993 1.50102 13.1534C0.374089 12.0265 0.374089 10.1928 1.50102 9.06589L7.98608 2.58084C8.75123 1.81566 9.99633 1.81566 10.7615 2.58084C11.5267 3.34602 11.5267 4.59109 10.7615 5.35627L5.99135 10.1264C5.80184 10.3159 5.49451 10.3159 5.30496 10.1264C5.11541 9.93685 5.11541 9.62955 5.30496 9.44L10.0751 4.66985C10.4618 4.28315 10.4618 3.65393 10.0751 3.26723C9.88774 3.07988 9.63868 2.97673 9.37378 2.97673C9.10887 2.97673 8.85978 3.07988 8.67247 3.26723L2.18742 9.75228C1.43896 10.5007 1.43896 11.7186 2.18742 12.467C2.55001 12.8296 3.03207 13.0293 3.5448 13.0293C4.05753 13.0293 4.53962 12.8296 4.90218 12.467L11.5394 5.82979C12.0772 5.29198 12.3734 4.57695 12.3734 3.81636C12.3734 3.05578 12.0772 2.34075 11.5394 1.80294C10.4292 0.692702 8.62277 0.692734 7.51256 1.80294L2.59023 6.72524C2.40071 6.91479 2.09339 6.91479 1.90384 6.72524C1.71429 6.53569 1.71429 6.22839 1.90384 6.03885L6.82617 1.11652C8.31486 -0.372172 10.7371 -0.372172 12.2258 1.11652C12.947 1.83766 13.3442 2.7965 13.3442 3.81636C13.3442 4.83623 12.947 5.79504 12.2258 6.51621L5.58857 13.1534C5.04268 13.6994 4.31684 14 3.5448 14Z" fill="#AADBFF"/>
</svg>
