<svg width="38" height="43" viewBox="0 0 38 43" fill="none" xmlns="http://www.w3.org/2000/svg">
<path d="M12.5292 12.0651H6.82687C3.75103 12.0651 1.25757 9.57168 1.25757 6.49584V1.32715" stroke="#0066FF" stroke-linecap="round" stroke-linejoin="round"/>
<path d="M17.2801 7.28862L27.6497 7.28862C30.7255 7.28862 33.219 9.78208 33.219 12.8579L33.219 18.0266" stroke="#0066FF" stroke-linecap="round" stroke-linejoin="round"/>
<path d="M25.4458 41.6268L18.5061 41.6268C15.3256 41.6268 12.7473 39.0485 12.7473 35.868L12.7473 30.5234" stroke="#0066FF" stroke-linecap="round" stroke-linejoin="round"/>
<path d="M36.6758 28.3366L33.9826 28.3366C30.9068 28.3366 28.4133 25.8432 28.4133 22.7673L28.4133 17.5986" stroke="#0066FF" stroke-linecap="round" stroke-linejoin="round"/>
<path d="M14.5671 7.28913H8.7741C7.27693 7.28913 6.06323 6.07544 6.06323 4.57826V1.27734" stroke="#0066FF" stroke-linecap="round" stroke-linejoin="round"/>
<path d="M12.3789 12.0646L25.7025 12.0646C27.1996 12.0646 28.4133 13.2783 28.4133 14.7755L28.4133 18.0764" stroke="#0066FF" stroke-linecap="round" stroke-linejoin="round"/>
<path d="M36.5255 36.4854L21.4487 36.4854C19.9515 36.4854 18.7378 35.2717 18.7378 33.7746L18.7378 30.4736" stroke="#0066FF" stroke-linecap="round" stroke-linejoin="round"/>
<path d="M36.5755 23.6104L35.9299 23.6104C34.4327 23.6104 33.219 22.3967 33.219 20.8996L33.219 17.5986" stroke="#0066FF" stroke-linecap="round" stroke-linejoin="round"/>
<line x1="12.478" y1="12.8484" x2="12.478" y2="18.812" stroke="#0066FF" stroke-linecap="round" stroke-linejoin="round"/>
<line x1="18.79" y1="12.8484" x2="18.79" y2="18.812" stroke="#0066FF" stroke-linecap="round" stroke-linejoin="round"/>
<rect x="10.2239" y="19.6814" width="10.923" height="10.4221" rx="1.5" stroke="#0066FF" stroke-linecap="round" stroke-linejoin="round"/>
<circle cx="15.8099" cy="24.8924" r="1.59503" fill="#0066FF"/>
<line x1="10.2239" y1="6.25806" x2="10.2239" y2="13.1682" stroke="#0066FF" stroke-linecap="round" stroke-linejoin="round"/>
<line x1="20.8962" y1="6.25806" x2="20.8962" y2="13.1682" stroke="#0066FF" stroke-linecap="round" stroke-linejoin="round"/>
<line x1="34.3975" y1="19.812" x2="27.4873" y2="19.812" stroke="#0066FF" stroke-linecap="round" stroke-linejoin="round"/>
<line x1="33.6687" y1="42.1975" x2="33.6687" y2="35.2874" stroke="#0066FF" stroke-linecap="round" stroke-linejoin="round"/>
<line x1="11.8308" y1="33.6577" x2="19.7891" y2="33.6577" stroke="#0066FF" stroke-linecap="round" stroke-linejoin="round"/>
<line x1="11.575" y1="16.5337" x2="19.8964" y2="16.5337" stroke="#0066FF" stroke-linecap="round" stroke-linejoin="round"/>
<line x1="28.0066" y1="41.7461" x2="36.0756" y2="41.7461" stroke="#0066FF" stroke-linecap="round" stroke-linejoin="round"/>
</svg>
