<svg width="38" height="38" viewBox="0 0 38 38" fill="none" xmlns="http://www.w3.org/2000/svg">
<path d="M7.62671 33.5008L14.5224 11.8494V8.61865H23.8772V11.8494L30.8211 33.1631" stroke="#9CC2FF" stroke-linecap="round" stroke-linejoin="round"/>
<path d="M11.717 33.0187L17.1262 14.7427H21.5144L26.7306 32.8001" stroke="#9CC2FF" stroke-linecap="round" stroke-linejoin="round"/>
<path d="M3.43144 36.7795L5.36028 33.3076H11.5808L14.2812 36.7795H1.0686" stroke="#9CC2FF" stroke-linecap="round" stroke-linejoin="round"/>
<path d="M35.0645 36.7795L33.1357 33.3076H26.9152L24.2148 36.7795H37.4274" stroke="#9CC2FF" stroke-linecap="round" stroke-linejoin="round"/>
<line x1="19.3622" y1="15.2427" x2="19.3622" y2="30.445" stroke="#9CC2FF" stroke-linecap="round" stroke-linejoin="round"/>
<line x1="15.2155" y1="22.3438" x2="23.0879" y2="22.3439" stroke="#9CC2FF" stroke-linecap="round" stroke-linejoin="round"/>
<line x1="16.1798" y1="18.6787" x2="22.1234" y2="18.6787" stroke="#9CC2FF" stroke-linecap="round" stroke-linejoin="round"/>
<line x1="12.9972" y1="11.5903" x2="25.3061" y2="11.5903" stroke="#9CC2FF" stroke-linecap="round" stroke-linejoin="round"/>
<path d="M17.3191 32.587C17.3191 31.4552 18.2366 30.5376 19.3685 30.5376V30.5376C20.5004 30.5376 21.4179 31.4552 21.4179 32.587V37.4283H17.3191V32.587Z" stroke="#9CC2FF" stroke-linecap="round" stroke-linejoin="round"/>
<rect x="16.8369" y="5.19482" width="4.91854" height="3.42386" stroke="#9CC2FF" stroke-linecap="round" stroke-linejoin="round"/>
<line x1="19.3622" y1="0.920898" x2="19.3622" y2="2.33197" stroke="#9CC2FF" stroke-linecap="round" stroke-linejoin="round"/>
<path d="M23.3071 0.661865L22.1364 2.83174" stroke="#9CC2FF" stroke-linecap="round" stroke-linejoin="round"/>
<path d="M16.6899 2.83179L15.5192 0.66191" stroke="#9CC2FF" stroke-linecap="round" stroke-linejoin="round"/>
<line x1="13.2865" y1="28.4719" x2="25.0167" y2="28.4719" stroke="#9CC2FF" stroke-linecap="round" stroke-linejoin="round"/>
</svg>
