<svg width="52" height="33" viewBox="0 0 52 33" fill="none" xmlns="http://www.w3.org/2000/svg">
<path d="M42.4105 13.4073L41.5978 11.7083C41.2655 11.0135 40.5638 10.5713 39.7936 10.5713L37.7149 10.5713C36.9679 10.5713 36.2831 10.9876 35.9393 11.6508L35.0287 13.4073" stroke="#9CC2FF" stroke-linecap="round"/>
<path d="M44.7048 27.3836V27.3836C47.1941 27.3836 49.212 25.3656 49.212 22.8764L49.212 18.2526C49.212 15.7633 47.1941 13.7454 44.7048 13.7454V13.7454" stroke="#9CC2FF" stroke-linecap="round"/>
<path d="M16.921 16.4077C16.921 15.027 18.0403 13.9077 19.421 13.9077H22.0153C23.396 13.9077 24.5153 15.027 24.5153 16.4077V29.6461H16.921V16.4077Z" stroke="#9CC2FF"/>
<path d="M0.986084 32.2295C0.986084 30.8488 2.10537 29.7295 3.48608 29.7295H48.417C49.7978 29.7295 50.9171 30.8488 50.9171 32.2295V32.4917H0.986084V32.2295Z" stroke="#9CC2FF"/>
<path d="M4.85815 9.91385C4.85815 7.81674 6.55819 6.1167 8.6553 6.1167C10.7524 6.1167 12.4524 7.81674 12.4524 9.91385V29.6458H4.85815V9.91385Z" stroke="#9CC2FF"/>
<path d="M6.5213 6.89006L4.64844 3.17242V1.45898H12.8971V3.17242L11.0242 6.89006" stroke="#9CC2FF"/>
<line x1="4.97119" y1="12.3479" x2="12.3746" y2="12.3479" stroke="#9CC2FF"/>
<line x1="4.97119" y1="26.5376" x2="12.3746" y2="26.5376" stroke="#9CC2FF"/>
<path d="M4.35814 16.8511L2.81766 17.5879C2.1229 17.9203 1.68068 18.622 1.68068 19.3921L1.68067 21.2163C1.68067 21.9633 2.09697 22.6481 2.76017 22.9919L4.35814 23.8203" stroke="#9CC2FF" stroke-linecap="round"/>
<line x1="25.0154" y1="16.4541" x2="29.0621" y2="16.4541" stroke="#9CC2FF"/>
<line x1="12.9523" y1="16.4541" x2="16.999" y2="16.4541" stroke="#9CC2FF"/>
<line x1="32.9934" y1="16.8716" x2="44.705" y2="16.8716" stroke="#9CC2FF"/>
<line x1="32.9934" y1="24.125" x2="44.705" y2="24.125" stroke="#9CC2FF"/>
<line x1="32.9934" y1="20.4775" x2="44.705" y2="20.4775" stroke="#9CC2FF"/>
<line x1="25.0154" y1="24.125" x2="29.0621" y2="24.125" stroke="#9CC2FF"/>
<line x1="12.9523" y1="24.125" x2="16.999" y2="24.125" stroke="#9CC2FF"/>
<line x1="29.2106" y1="16.9541" x2="29.2106" y2="24.2329" stroke="#9CC2FF"/>
<line x1="33.4934" y1="13.7454" x2="33.4934" y2="27.4421" stroke="#9CC2FF"/>
<line x1="35.0831" y1="26.8838" x2="35.0831" y2="29.229" stroke="#9CC2FF"/>
<line x1="43.683" y1="26.8838" x2="43.683" y2="29.229" stroke="#9CC2FF"/>
<path d="M29.0621 16.8397L33.264 13.7454H44.7442V27.3836H33.264L29.0621 24.2891" stroke="#9CC2FF"/>
</svg>
