<svg width="48" height="47" viewBox="0 0 48 47" fill="none" xmlns="http://www.w3.org/2000/svg">
<g clip-path="url(#clip0)">
<path d="M8.61204 18.6675C8.87791 18.5792 9.07647 18.3558 9.13294 18.0814C9.18941 17.807 9.0952 17.5233 8.8858 17.3372C8.6764 17.1511 8.38363 17.0908 8.11776 17.1791C5.55568 18.039 3.76419 20.358 3.57913 23.0541C3.5643 23.2623 3.63311 23.4677 3.77032 23.6249C3.90752 23.7821 4.10176 23.8781 4.30998 23.8915H4.36168C4.77518 23.8924 5.11814 23.5717 5.14501 23.1591C5.28793 21.0983 6.6567 19.3259 8.6144 18.6667L8.61204 18.6675Z" fill="#9CC2FF"/>
<path d="M44.2983 20.7583H41.165C41.165 19.4604 40.1128 18.4083 38.815 18.4083H35.8046C34.2459 15.8522 31.6035 14.1496 28.6316 13.7866V11.75C28.6316 10.2358 27.4042 9.0083 25.89 9.0083C24.3758 9.0083 23.1483 10.2358 23.1483 11.75V13.7083H21.5816V11.75C21.5816 10.2358 20.3542 9.0083 18.84 9.0083C17.3258 9.0083 16.0983 10.2358 16.0983 11.75V13.7083H14.5316V11.75C14.5316 10.2358 13.3042 9.0083 11.79 9.0083C10.2758 9.0083 9.04831 10.2358 9.04831 11.75V13.7866C4.74543 14.3116 1.29984 17.6033 0.578907 21.8777C-0.142027 26.1522 2.03329 30.3919 5.92594 32.2992L5.16219 36.1179C5.14324 36.2191 5.13432 36.322 5.13556 36.425H1.21497C0.782351 36.425 0.431641 36.7757 0.431641 37.2083C0.431641 37.6409 0.782351 37.9916 1.21497 37.9916H46.6483C47.0809 37.9916 47.4316 37.6409 47.4316 37.2083V23.8916C47.4316 22.1611 46.0288 20.7583 44.2983 20.7583ZM42.7316 36.425H32.5483C32.5495 36.3217 32.5406 36.2186 32.5217 36.1171L31.7556 32.2874C32.7265 31.812 33.6138 31.1821 34.3829 30.4223C35.1419 29.659 35.7699 28.7758 36.2417 27.8083H38.815C40.1128 27.8083 41.165 26.7562 41.165 25.4583H42.7316V36.425ZM38.815 19.975C39.2476 19.975 39.5983 20.3257 39.5983 20.7583V25.4583C39.5983 25.8909 39.2476 26.2416 38.815 26.2416H36.8566C37.1159 25.3508 37.2478 24.4278 37.2483 23.5C37.2466 22.2937 37.0203 21.0983 36.5809 19.975H38.815ZM24.715 11.75C24.715 11.101 25.241 10.575 25.89 10.575C26.5389 10.575 27.065 11.101 27.065 11.75V13.7083H24.715V11.75ZM17.665 11.75C17.665 11.101 18.191 10.575 18.84 10.575C19.4889 10.575 20.015 11.101 20.015 11.75V13.7083H17.665V11.75ZM11.79 10.575C12.1021 10.5733 12.402 10.6965 12.6227 10.9173C12.8434 11.138 12.9667 11.4378 12.965 11.75L12.965 13.7083H10.615V11.75C10.615 11.101 11.141 10.575 11.79 10.575ZM1.99831 23.5C2.0009 18.9585 5.68184 15.2776 10.2233 15.275H27.4566C30.7826 15.276 33.7805 17.2799 35.0532 20.3527C36.3258 23.4255 35.6226 26.9624 33.2713 29.3147C32.7244 29.8555 32.1058 30.3186 31.4328 30.691L31.2644 29.8505C31.1158 29.1196 30.4741 28.5938 29.7283 28.5916H27.535C26.7892 28.5938 26.1475 29.1196 25.9989 29.8505L25.6244 31.725H12.0555L11.6811 29.8505C11.5325 29.1196 10.8908 28.5938 10.145 28.5916H7.95164C7.20584 28.5938 6.56416 29.1196 6.41552 29.8505L6.24632 30.698C3.62004 29.2566 1.99075 26.4958 1.99831 23.5ZM27.535 29.375V30.1583V29.375ZM12.9344 36.1171L12.3689 33.2916H25.3111L24.7455 36.1179C24.7266 36.2191 24.7177 36.322 24.7189 36.425H12.965C12.9649 36.3216 12.9547 36.2185 12.9344 36.1171ZM7.95164 29.375V30.1583V29.375ZM6.69831 36.425L7.95164 30.1583H10.145L11.3983 36.425H6.69831ZM26.2816 36.425L27.535 30.1583H29.7283L30.9816 36.425H26.2816ZM44.2983 36.425V24.675C44.2983 24.2423 43.9476 23.8916 43.515 23.8916H41.165V22.325H44.2983C45.1636 22.325 45.865 23.0264 45.865 23.8916V36.425H44.2983Z" fill="#9CC2FF"/>
<path d="M17.6296 29.9287C18.2208 30.0808 18.8287 30.1579 19.4391 30.1582C21.1336 30.2381 22.765 29.5069 23.8329 28.1889C24.6282 27.0772 24.9036 25.6758 24.588 24.3459C24.374 23.4847 24.0099 22.668 23.5125 21.9332C23.0098 21.2237 22.4248 20.5763 21.7696 20.0046L21.5416 19.79C21.2187 19.5044 21.0156 19.1074 20.9729 18.6784C20.9651 18.604 20.9604 18.5273 20.958 18.4521L20.9173 16.8235C20.9092 16.5084 20.713 16.2288 20.4193 16.1141C20.1257 15.9993 19.7919 16.0718 19.5723 16.2979L18.4631 17.4431C18.3519 17.5575 18.2383 17.6695 18.1075 17.798C17.7921 18.0968 17.4962 18.4155 17.2215 18.7521C16.4583 19.5749 16.1635 20.7283 16.4382 21.8165C16.5337 22.1108 16.6669 22.3915 16.8346 22.6515C16.944 22.8104 17.0276 22.9857 17.0821 23.1709C17.1032 23.2735 17.0719 23.3056 17.0578 23.3205C17.0139 23.3643 16.9419 23.3886 16.7891 23.3847C16.6497 23.3444 16.5258 23.2624 16.4343 23.1497L15.6157 22.2199C15.4251 22.0033 15.1309 21.9091 14.8499 21.9746C14.5689 22.0401 14.3467 22.2547 14.2715 22.5332L13.9425 23.7482C13.4836 25.2824 13.7902 26.9438 14.7666 28.2132C15.5238 29.0634 16.5228 29.662 17.6296 29.9287ZM15.412 24.3435C15.6951 24.619 16.0467 24.8137 16.4304 24.9075C17.06 25.0524 17.7199 24.8657 18.1803 24.4124C18.5775 24.0008 18.7422 23.4177 18.619 22.8591C18.5334 22.4982 18.3846 22.1553 18.1795 21.8462C18.0835 21.699 18.0047 21.5413 17.9445 21.3762C17.8281 20.7739 18.019 20.1531 18.4537 19.7203C18.6882 19.4364 18.9401 19.1675 19.2081 18.915L19.4047 18.7207C19.4047 18.763 19.4117 18.8046 19.4156 18.8461C19.4986 19.6457 19.8724 20.3869 20.4661 20.929L20.7011 21.1499C21.2666 21.6385 21.7725 22.1923 22.2082 22.7996C22.6033 23.3804 22.8929 24.0263 23.0636 24.7078C23.2759 25.5892 23.0968 26.5194 22.5725 27.2591C21.7967 28.1725 20.6352 28.6661 19.4391 28.5907C18.9635 28.5907 18.4898 28.5307 18.0291 28.4121C17.2359 28.2266 16.5176 27.8049 15.969 27.2027C15.3565 26.3846 15.1514 25.3316 15.412 24.3435Z" fill="#9CC2FF"/>
</g>
<defs>
<clipPath id="clip0">
<rect width="47" height="47" fill="white" transform="translate(0.431641)"/>
</clipPath>
</defs>
</svg>
