<svg width="33" height="33" viewBox="0 0 33 33" fill="none" xmlns="http://www.w3.org/2000/svg">
<path d="M24.6211 17.1447H27.4455L25.9783 20.0791C25.8191 20.3974 25.9481 20.7846 26.2665 20.9438C26.5848 21.103 26.9721 20.974 27.1313 20.6555L29.0648 16.7883C29.1648 16.5885 29.1541 16.3513 29.0366 16.1613C28.9192 15.9713 28.7117 15.8556 28.4883 15.8556H25.664L27.1312 12.9212C27.2904 12.6029 27.1614 12.2157 26.843 12.0565C26.5246 11.8972 26.1374 12.0263 25.9782 12.3448L24.0446 16.212C23.9447 16.4118 23.9554 16.6491 24.0728 16.8391C24.1903 17.029 24.3977 17.1447 24.6211 17.1447Z" fill="#9CC2FF"/>
<path d="M16.5 11.9883H4.89844C4.54246 11.9883 4.25391 12.2769 4.25391 12.6328V20.3672C4.25391 20.7231 4.54246 21.0117 4.89844 21.0117H16.5C16.856 21.0117 17.1445 20.7231 17.1445 20.3672V12.6328C17.1445 12.2769 16.856 11.9883 16.5 11.9883ZM15.8555 19.7227H13.2773V16.5C13.2773 16.1441 12.9888 15.8555 12.6328 15.8555C12.2768 15.8555 11.9883 16.1441 11.9883 16.5V19.7227H9.41016V16.5C9.41016 16.1441 9.1216 15.8555 8.76562 15.8555C8.40965 15.8555 8.12109 16.1441 8.12109 16.5V19.7227H5.54297V13.2773H15.8555V19.7227Z" fill="#9CC2FF"/>
<path d="M32.3555 1.93359C31.9995 1.93359 31.7109 2.22221 31.7109 2.57812V5.22567C30.8914 4.38823 29.7498 3.86719 28.4883 3.86719H19.0781V0.644531C19.0781 0.288621 18.7896 0 18.4336 0H14.5664C14.2104 0 13.9219 0.288621 13.9219 0.644531V3.86719H11.3438V0.644531C11.3438 0.288621 11.0552 0 10.6992 0H6.83203C6.47606 0 6.1875 0.288621 6.1875 0.644531V3.86719H4.51172C3.25024 3.86719 2.10865 4.38823 1.28906 5.22567V2.57812C1.28906 2.22221 1.00051 1.93359 0.644531 1.93359C0.288557 1.93359 0 2.22221 0 2.57812V28.4883C0 28.8442 0.288557 29.1328 0.644531 29.1328H4.3007C4.61452 31.3162 6.49675 33 8.76562 33C11.0345 33 12.9168 31.3162 13.2306 29.1328H24.2228L25.9782 32.6437C26.0874 32.8621 26.3105 33 26.5547 33H30.4219C30.7778 33 31.0664 32.7114 31.0664 32.3555V29.1328H32.3555C32.7114 29.1328 33 28.8442 33 28.4883C33 27.7923 33 3.27377 33 2.57812C33 2.22221 32.7114 1.93359 32.3555 1.93359ZM15.2109 1.28906H17.7891V3.86719H15.2109V1.28906ZM7.47656 1.28906H10.0547V3.86719H7.47656V1.28906ZM8.76562 31.7109C6.98865 31.7109 5.54297 30.2653 5.54297 28.4883C5.54297 26.7113 6.98865 25.2656 8.76562 25.2656C10.5426 25.2656 11.9883 26.7113 11.9883 28.4883C11.9883 30.2653 10.5426 31.7109 8.76562 31.7109ZM29.7773 31.7109H26.953L25.6639 29.1328H29.7773V31.7109ZM31.7109 27.8438H13.2306C12.9167 25.6603 11.0345 23.9766 8.76562 23.9766C6.49675 23.9766 4.61446 25.6603 4.3007 27.8438H1.28906V9.02344H7.79883C8.1548 9.02344 8.44336 8.73482 8.44336 8.37891C8.44336 8.023 8.1548 7.73438 7.79883 7.73438H1.35377C1.65329 6.26523 2.95543 5.15625 4.51172 5.15625H28.4883C30.0446 5.15625 31.3467 6.26523 31.6462 7.73438H13.5996C13.2436 7.73438 12.9551 8.023 12.9551 8.37891C12.9551 8.73482 13.2436 9.02344 13.5996 9.02344H20.1094V24.2344C20.1094 24.5903 20.3979 24.8789 20.7539 24.8789H31.7109V27.8438ZM31.7109 23.5898H21.3984V9.02344H31.7109V23.5898Z" fill="#9CC2FF"/>
<path d="M10.6992 9.02344C11.0552 9.02344 11.3438 8.73487 11.3438 8.37891C11.3438 8.02294 11.0552 7.73438 10.6992 7.73438C10.3433 7.73438 10.0547 8.02294 10.0547 8.37891C10.0547 8.73487 10.3433 9.02344 10.6992 9.02344Z" fill="#9CC2FF"/>
</svg>
