<svg width="118" height="75" viewBox="0 0 118 75" fill="none" xmlns="http://www.w3.org/2000/svg">
<path d="M97.0895 29.3583L94.4965 23.9373C94.1642 23.2426 93.4624 22.8003 92.6923 22.8003L84.6353 22.8003C83.8883 22.8003 83.2035 23.2166 82.8597 23.8798L80.0195 29.3583" stroke="#0066FF" stroke-width="2" stroke-linecap="round"/>
<path d="M102.395 61.6761L106.818 61.6761C110.132 61.6761 112.818 58.9898 112.818 55.6761L112.818 36.1387C112.818 32.825 110.132 30.1387 106.818 30.1387L102.395 30.1387" stroke="#0066FF" stroke-width="2" stroke-linecap="round"/>
<path d="M37.9908 32.3584C37.9908 31.2538 38.8863 30.3584 39.9908 30.3584H53.8646C54.9692 30.3584 55.8646 31.2538 55.8646 32.3584V67.0647H37.9908V32.3584Z" stroke="#0066FF" stroke-width="2"/>
<path d="M1.14221 68.9448C1.14221 67.8403 2.03764 66.9448 3.14221 66.9448H114.917C116.021 66.9448 116.917 67.8403 116.917 68.9448V73.6446H1.14221V68.9448Z" stroke="#0066FF" stroke-width="2"/>
<path d="M10.0959 19.3428C10.0959 15.4768 13.23 12.3428 17.0959 12.3428H20.9697C24.8357 12.3428 27.9697 15.4768 27.9697 19.3428V67.0647H10.0959V19.3428Z" stroke="#0066FF" stroke-width="2"/>
<path d="M14.0983 14.287L9.76746 5.69023V1.72803H28.8419V5.69023L24.5109 14.287" stroke="#0066FF" stroke-width="2"/>
<line x1="10.5137" y1="27.0645" x2="27.6336" y2="27.0645" stroke="#0066FF" stroke-width="2"/>
<line x1="10.5137" y1="59.8765" x2="27.6336" y2="59.8765" stroke="#0066FF" stroke-width="2"/>
<path d="M9.09591 37.3206L4.04144 39.7383C3.34668 40.0706 2.90446 40.7724 2.90446 41.5425L2.90442 49.0108C2.90442 49.7578 3.32073 50.4425 3.98393 50.7864L9.09591 53.4365" stroke="#0066FF" stroke-width="2" stroke-linecap="round"/>
<line x1="56.8646" y1="36.5591" x2="66.2224" y2="36.5591" stroke="#0066FF" stroke-width="2"/>
<line x1="28.9696" y1="36.5591" x2="38.3274" y2="36.5591" stroke="#0066FF" stroke-width="2"/>
<line x1="75.3132" y1="37.5249" x2="102.395" y2="37.5249" stroke="#0066FF" stroke-width="2"/>
<line x1="75.3132" y1="54.2983" x2="102.395" y2="54.2983" stroke="#0066FF" stroke-width="2"/>
<line x1="75.3132" y1="45.8628" x2="102.395" y2="45.8628" stroke="#0066FF" stroke-width="2"/>
<line x1="56.8646" y1="54.2983" x2="66.2224" y2="54.2983" stroke="#0066FF" stroke-width="2"/>
<line x1="28.9696" y1="54.2983" x2="38.3274" y2="54.2983" stroke="#0066FF" stroke-width="2"/>
<line x1="66.4095" y1="37.5591" x2="66.4095" y2="54.3909" stroke="#0066FF" stroke-width="2"/>
<line x1="76.3132" y1="30.1387" x2="76.3132" y2="61.8116" stroke="#0066FF" stroke-width="2"/>
<line x1="79.9897" y1="60.522" x2="79.9897" y2="65.9452" stroke="#0066FF" stroke-width="2"/>
<line x1="99.8761" y1="60.522" x2="99.8761" y2="65.9452" stroke="#0066FF" stroke-width="2"/>
<path d="M66.2224 37.2941L75.939 30.1387H102.486V61.6761H75.939L66.2224 54.5204" stroke="#0066FF" stroke-width="2"/>
</svg>
