<svg width="102" height="103" viewBox="0 0 102 103" fill="none" xmlns="http://www.w3.org/2000/svg">
<path d="M19.5155 90.5364L38.2056 31.8524V23.0957H63.561V31.8524L82.3816 89.6211" stroke="#0066FF" stroke-width="2" stroke-linecap="round" stroke-linejoin="round"/>
<path d="M30.6021 89.2297L45.2631 39.6943H57.1567L71.2949 88.6372" stroke="#0066FF" stroke-width="2" stroke-linecap="round" stroke-linejoin="round"/>
<path d="M8.14472 99.4237L13.3726 90.0134H30.2328L37.5519 99.4237H1.74048" stroke="#0066FF" stroke-width="2" stroke-linecap="round" stroke-linejoin="round"/>
<path d="M93.8831 99.4237L88.6552 90.0134H71.795L64.4759 99.4237H100.287" stroke="#0066FF" stroke-width="2" stroke-linecap="round" stroke-linejoin="round"/>
<line x1="50.9683" y1="40.6943" x2="50.9683" y2="82.6091" stroke="#0066FF" stroke-width="2" stroke-linecap="round" stroke-linejoin="round"/>
<line x1="39.7288" y1="60.6514" x2="61.7767" y2="60.6516" stroke="#0066FF" stroke-width="2" stroke-linecap="round" stroke-linejoin="round"/>
<line x1="42.3428" y1="50.7178" x2="59.1628" y2="50.7178" stroke="#0066FF" stroke-width="2" stroke-linecap="round" stroke-linejoin="round"/>
<line x1="33.7166" y1="31.5054" x2="67.789" y2="31.5054" stroke="#0066FF" stroke-width="2" stroke-linecap="round" stroke-linejoin="round"/>
<path d="M45.7858 85.5049C45.7858 83.848 47.1289 82.5049 48.7858 82.5049H53.8953C55.5521 82.5049 56.8953 83.848 56.8953 85.5049V101.182H45.7858V85.5049Z" stroke="#0066FF" stroke-width="2" stroke-linecap="round" stroke-linejoin="round"/>
<rect x="44.479" y="13.8157" width="13.3312" height="9.28004" stroke="#0066FF" stroke-width="2" stroke-linecap="round" stroke-linejoin="round"/>
<line x1="50.9683" y1="1.87646" x2="50.9683" y2="6.41143" stroke="#0066FF" stroke-width="2" stroke-linecap="round" stroke-linejoin="round"/>
<path d="M62.0157 1.52954L58.8425 7.41078" stroke="#0066FF" stroke-width="2" stroke-linecap="round" stroke-linejoin="round"/>
<path d="M44.0807 7.41089L40.9074 1.52965" stroke="#0066FF" stroke-width="2" stroke-linecap="round" stroke-linejoin="round"/>
<line x1="34.5007" y1="77.2612" x2="67.0047" y2="77.2612" stroke="#0066FF" stroke-width="2" stroke-linecap="round" stroke-linejoin="round"/>
</svg>
