<svg width="83" height="87" viewBox="0 0 83 87" fill="none" xmlns="http://www.w3.org/2000/svg">
<path d="M68.0726 33.8801L63.1241 44.1576H72.8307L67.1649 55.0949" stroke="#0066FF" stroke-width="2" stroke-linecap="round" stroke-linejoin="round"/>
<path d="M24.0326 12.5736L24.0326 4.14404C24.0326 2.48719 22.6895 1.14404 21.0326 1.14404H15.6345C13.9777 1.14404 12.6345 2.48719 12.6345 4.14404L12.6345 12.5736" stroke="#0066FF" stroke-width="2" stroke-linecap="round"/>
<path d="M42.8907 12.5736L42.8907 4.14404C42.8907 2.48719 41.5475 1.14404 39.8907 1.14404H34.4926C32.8357 1.14404 31.4926 2.48719 31.4926 4.14404L31.4926 12.5736" stroke="#0066FF" stroke-width="2" stroke-linecap="round"/>
<path d="M1.82886 20.0847C1.82886 16.2187 4.96287 13.0847 8.82886 13.0847H74.4783C78.3443 13.0847 81.4783 16.2187 81.4783 20.0847V74.7952C81.4783 75.3475 81.0305 75.7952 80.4783 75.7952H2.82886C2.27657 75.7952 1.82886 75.3475 1.82886 74.7952V20.0847Z" stroke="#0066FF" stroke-width="2"/>
<path d="M66.0682 76.7952L70.7987 84.321C70.9817 84.6121 71.3014 84.7888 71.6453 84.7888H78.0863C78.6386 84.7888 79.0863 84.3411 79.0863 83.7888V76.7952" stroke="#0066FF" stroke-width="2"/>
<circle cx="18.7193" cy="76.2242" r="9.00543" fill="white" stroke="#0066FF" stroke-width="2"/>
<rect x="12.4869" y="31.1655" width="29.4037" height="16.4615" rx="1" stroke="#0066FF" stroke-width="2"/>
<path d="M54.5797 24.0752V63.2184H81.3749" stroke="#0066FF" stroke-width="2" stroke-linecap="round" stroke-linejoin="round"/>
<line x1="22.2872" y1="45.9141" x2="22.2872" y2="40.3963" stroke="#0066FF" stroke-width="2" stroke-linecap="round" stroke-linejoin="round"/>
<line x1="31.6393" y1="45.9141" x2="31.6393" y2="40.3963" stroke="#0066FF" stroke-width="2" stroke-linecap="round" stroke-linejoin="round"/>
<line x1="2.98181" y1="24.0105" x2="22.2873" y2="24.0105" stroke="#0066FF" stroke-width="2" stroke-linecap="round" stroke-linejoin="round"/>
<line x1="33.6393" y1="24.0105" x2="80.3749" y2="24.0105" stroke="#0066FF" stroke-width="2" stroke-linecap="round" stroke-linejoin="round"/>
<line x1="27.8679" y1="24.0105" x2="28.4484" y2="24.0105" stroke="#0066FF" stroke-width="2" stroke-linecap="round" stroke-linejoin="round"/>
</svg>
