<svg width="127" height="79" viewBox="0 0 127 79" fill="none" xmlns="http://www.w3.org/2000/svg">
<path d="M65.9235 58.5285C66.1211 57.6062 66.9361 56.9473 67.8792 56.9473L72.2085 56.9474C73.1636 56.9474 73.9854 57.6227 74.1706 58.5597L77.3068 74.4309C77.5511 75.6672 76.605 76.8186 75.3447 76.8186H64.4801C63.2069 76.8186 62.2578 75.6448 62.5244 74.3998L65.9235 58.5285Z" stroke="#0066FF" stroke-width="2" stroke-linecap="round"/>
<path d="M22.595 58.5285C22.7926 57.6062 23.6076 56.9473 24.5507 56.9473L28.88 56.9474C29.8351 56.9474 30.6569 57.6227 30.8421 58.5597L33.9783 74.4309C34.2226 75.6672 33.2765 76.8186 32.0163 76.8186H21.1516C19.8784 76.8186 18.9293 75.6448 19.1959 74.3998L22.595 58.5285Z" stroke="#0066FF" stroke-width="2" stroke-linecap="round"/>
<path d="M45.9281 32.28C46.6335 27.443 49.8785 26.9672 50.9155 26.2471C50.9155 26.6503 50.9584 28.6462 51.3041 30.0288C51.7361 31.757 51.9524 32.4401 53.8535 34.7732C55.7546 37.1064 58.1741 37.7976 58.1741 42.9823C58.1741 48.167 52.3845 49.0312 49.9649 49.0312C47.5454 49.0312 42.5335 48.7719 41.4101 43.76C40.5114 39.7505 41.1473 37.392 41.8962 36.4127C41.925 37.0176 42.2192 37.7973 42.6018 38.4623C43.1278 39.3765 44.5337 40.831 45.9281 39.4367C48.2129 37.1519 45.2227 37.1169 45.9281 32.28Z" stroke="#0066FF" stroke-width="2" stroke-linecap="round"/>
<path d="M64.8103 65.5759H32.6417M75.2779 65.5759V65.5759C86.1343 65.5759 94.9352 56.775 94.9352 45.9186V39.3656C94.9352 24.89 83.2005 13.1553 68.7249 13.1553H27.8751C13.3995 13.1553 1.66479 24.89 1.66479 39.3656V44.9389C1.66479 56.3364 10.9043 65.5759 22.3018 65.5759V65.5759" stroke="#0066FF" stroke-width="2" stroke-linecap="round"/>
<path d="M34.2003 13.1555L34.2003 7.24925C34.2003 4.00526 31.5705 1.37549 28.3265 1.37549V1.37549C25.0825 1.37549 22.4528 4.00525 22.4528 7.24924L22.4528 13.1555" stroke="#0066FF" stroke-width="2" stroke-linecap="round"/>
<path d="M54.5654 13.1555L54.5654 7.24925C54.5654 4.00526 51.9356 1.37549 48.6916 1.37549V1.37549C45.4476 1.37549 42.8179 4.00525 42.8179 7.24924L42.8179 13.1555" stroke="#0066FF" stroke-width="2" stroke-linecap="round"/>
<path d="M74.9307 13.1555L74.9307 7.24925C74.9307 4.00526 72.301 1.37549 69.057 1.37549V1.37549C65.813 1.37549 63.1832 4.00525 63.1832 7.24924L63.1832 13.1555" stroke="#0066FF" stroke-width="2" stroke-linecap="round"/>
<path d="M94.9352 47.8836L101.098 47.8836C102.755 47.8836 104.098 46.5405 104.098 44.8836L104.098 35.7398C104.098 34.0829 102.755 32.7398 101.098 32.7398L94.9352 32.7397" stroke="#0066FF" stroke-width="2" stroke-linecap="round"/>
<path d="M104.098 43.5435C104.442 43.5435 105 43.5435 107.61 43.5435C110.872 43.5435 112.081 46.4037 112.081 48.4651C112.081 50.5265 112.081 68.5266 112.081 75.7318" stroke="#0066FF" stroke-width="2" stroke-linecap="round"/>
<path d="M104.098 37.6387C104.442 37.6387 107.365 37.6387 109.974 37.6387C114.561 37.6387 118.143 40.7854 118.143 45.6778C118.143 50.5703 118.143 68.5919 118.143 75.7971" stroke="#0066FF" stroke-width="2" stroke-linecap="round"/>
<path d="M12.321 35.6625C12.321 28.9035 17.8003 23.4243 24.5593 23.4243" stroke="#0066FF" stroke-width="2" stroke-linecap="round"/>
<line x1="6.89893" y1="77.645" x2="125.568" y2="77.645" stroke="#0066FF" stroke-width="2" stroke-linecap="round"/>
</svg>
