<svg width="101" height="8" viewBox="0 0 101 8" fill="none" xmlns="http://www.w3.org/2000/svg">
<path d="M5.65251 5.86827H2.69251L2.14251 7.22827H0.12251L3.21251 0.228271H5.16251L8.26251 7.22827H6.20251L5.65251 5.86827ZM5.07251 4.40827L4.17251 2.16827L3.27251 4.40827H5.07251ZM14.6647 3.56827C15.078 3.7016 15.3914 3.90827 15.6047 4.18827C15.8247 4.46827 15.9347 4.81494 15.9347 5.22827C15.9347 5.84827 15.6914 6.33827 15.2047 6.69827C14.7247 7.0516 14.0414 7.22827 13.1547 7.22827H9.5647V0.228271H12.9647C13.8047 0.228271 14.4547 0.388271 14.9147 0.708271C15.3814 1.0216 15.6147 1.46827 15.6147 2.04827C15.6147 2.38827 15.5314 2.68827 15.3647 2.94827C15.2047 3.20827 14.9714 3.41494 14.6647 3.56827ZM11.5147 3.02827H12.7747C13.3347 3.02827 13.6147 2.79827 13.6147 2.33827C13.6147 1.87827 13.3347 1.64827 12.7747 1.64827H11.5147V3.02827ZM13.0747 5.80827C13.648 5.80827 13.9347 5.56494 13.9347 5.07827C13.9347 4.60494 13.648 4.36827 13.0747 4.36827H11.5147V5.80827H13.0747ZM17.5061 0.228271H19.4561V4.33827L22.3461 0.228271H24.2061V7.22827H22.2561V3.12827L19.3761 7.22827H17.5061V0.228271ZM31.0392 5.86827H28.0792L27.5292 7.22827H25.5092L28.5992 0.228271H30.5492L33.6492 7.22827H31.5892L31.0392 5.86827ZM30.4592 4.40827L29.5592 2.16827L28.6592 4.40827H30.4592ZM40.0714 1.79827H36.9014V7.22827H34.9514V0.228271H40.0814L40.0714 1.79827ZM44.9201 5.86827H41.9601L41.4101 7.22827H39.3901L42.4801 0.228271H44.4301L47.5301 7.22827H45.4701L44.9201 5.86827ZM44.3401 4.40827L43.4401 2.16827L42.5401 4.40827H44.3401ZM53.1623 3.58827C53.5489 3.73494 53.8523 3.95494 54.0723 4.24827C54.2923 4.5416 54.4023 4.87827 54.4023 5.25827C54.4023 5.6916 54.2556 6.06827 53.9623 6.38827C53.6689 6.70827 53.2723 6.95494 52.7723 7.12827C52.2723 7.29494 51.7223 7.37827 51.1223 7.37827C50.6489 7.37827 50.1656 7.3216 49.6723 7.20827C49.1856 7.09494 48.7189 6.92494 48.2723 6.69827L48.8623 5.31827C49.1756 5.47827 49.5089 5.6016 49.8623 5.68827C50.2223 5.76827 50.5689 5.80827 50.9023 5.80827C51.3423 5.80827 51.7023 5.73827 51.9823 5.59827C52.2623 5.4516 52.4023 5.24827 52.4023 4.98827C52.4023 4.7816 52.3156 4.62827 52.1423 4.52827C51.9689 4.42827 51.7356 4.37827 51.4423 4.37827H49.6523V2.92827H51.2823C51.5489 2.92827 51.7556 2.87494 51.9023 2.76827C52.0489 2.6616 52.1223 2.51827 52.1223 2.33827C52.1223 2.1116 52.0089 1.93827 51.7823 1.81827C51.5556 1.6916 51.2623 1.62827 50.9023 1.62827C50.6089 1.62827 50.2989 1.6716 49.9723 1.75827C49.6456 1.83827 49.3356 1.95494 49.0423 2.10827L48.4623 0.608271C49.2089 0.248271 50.0289 0.0682713 50.9223 0.0682713C51.4956 0.0682713 52.0256 0.151605 52.5123 0.318271C53.0056 0.478271 53.3956 0.711604 53.6823 1.01827C53.9756 1.32494 54.1223 1.68827 54.1223 2.10827C54.1223 2.43494 54.0356 2.72827 53.8623 2.98827C53.6956 3.2416 53.4623 3.4416 53.1623 3.58827ZM55.7029 3.64827H58.6229V5.10827H55.7029V3.64827ZM63.7794 7.36827C63.0461 7.36827 62.3861 7.21494 61.7994 6.90827C61.2194 6.59494 60.7627 6.1616 60.4294 5.60827C60.0961 5.05494 59.9294 4.42827 59.9294 3.72827C59.9294 3.02827 60.0961 2.4016 60.4294 1.84827C60.7627 1.29494 61.2194 0.864938 61.7994 0.558271C62.3861 0.244938 63.0461 0.088271 63.7794 0.088271C64.4194 0.088271 64.9961 0.201604 65.5094 0.428271C66.0227 0.654938 66.4494 0.981605 66.7894 1.40827L65.5294 2.54827C65.0761 2.0016 64.5261 1.72827 63.8794 1.72827C63.4994 1.72827 63.1594 1.8116 62.8594 1.97827C62.5661 2.14494 62.3361 2.3816 62.1694 2.68827C62.0094 2.98827 61.9294 3.33494 61.9294 3.72827C61.9294 4.1216 62.0094 4.4716 62.1694 4.77827C62.3361 5.07827 62.5661 5.3116 62.8594 5.47827C63.1594 5.64494 63.4994 5.72827 63.8794 5.72827C64.5261 5.72827 65.0761 5.45494 65.5294 4.90827L66.7894 6.04827C66.4494 6.47494 66.0227 6.8016 65.5094 7.02827C64.9961 7.25494 64.4194 7.36827 63.7794 7.36827ZM71.4774 7.36827C70.7374 7.36827 70.0707 7.2116 69.4774 6.89827C68.8907 6.58494 68.4274 6.1516 68.0874 5.59827C67.754 5.04494 67.5874 4.4216 67.5874 3.72827C67.5874 3.03494 67.754 2.4116 68.0874 1.85827C68.4274 1.30494 68.8907 0.871605 69.4774 0.558271C70.0707 0.244938 70.7374 0.088271 71.4774 0.088271C72.2174 0.088271 72.8807 0.244938 73.4674 0.558271C74.0607 0.871605 74.524 1.30494 74.8574 1.85827C75.1974 2.4116 75.3674 3.03494 75.3674 3.72827C75.3674 4.4216 75.1974 5.04494 74.8574 5.59827C74.524 6.1516 74.0607 6.58494 73.4674 6.89827C72.8807 7.2116 72.2174 7.36827 71.4774 7.36827ZM71.4774 5.72827C71.8307 5.72827 72.1507 5.64494 72.4374 5.47827C72.724 5.3116 72.9507 5.07827 73.1174 4.77827C73.284 4.4716 73.3674 4.1216 73.3674 3.72827C73.3674 3.33494 73.284 2.98827 73.1174 2.68827C72.9507 2.3816 72.724 2.14494 72.4374 1.97827C72.1507 1.8116 71.8307 1.72827 71.4774 1.72827C71.124 1.72827 70.804 1.8116 70.5174 1.97827C70.2307 2.14494 70.004 2.3816 69.8374 2.68827C69.6707 2.98827 69.5874 3.33494 69.5874 3.72827C69.5874 4.1216 69.6707 4.4716 69.8374 4.77827C70.004 5.07827 70.2307 5.3116 70.5174 5.47827C70.804 5.64494 71.124 5.72827 71.4774 5.72827ZM83.316 0.088271C84.0294 0.088271 84.6727 0.244938 85.246 0.558271C85.8194 0.871605 86.2694 1.30494 86.596 1.85827C86.9227 2.4116 87.086 3.03494 87.086 3.72827C87.086 4.4216 86.9227 5.04494 86.596 5.59827C86.2694 6.1516 85.8194 6.58494 85.246 6.89827C84.6727 7.2116 84.0294 7.36827 83.316 7.36827C82.6894 7.36827 82.1127 7.24827 81.586 7.00827C81.066 6.76827 80.6327 6.4316 80.286 5.99827C79.946 5.56494 79.7194 5.06827 79.606 4.50827H78.876V7.22827H76.926V0.228271H78.876V2.84827H79.626C79.7527 2.3016 79.9894 1.8216 80.336 1.40827C80.6827 0.988271 81.1127 0.664938 81.626 0.438271C82.1394 0.204938 82.7027 0.088271 83.316 0.088271ZM83.316 5.72827C83.6494 5.72827 83.9494 5.64494 84.216 5.47827C84.4827 5.3116 84.6927 5.07827 84.846 4.77827C85.006 4.47827 85.086 4.12827 85.086 3.72827C85.086 3.32827 85.006 2.97827 84.846 2.67827C84.6927 2.37827 84.4827 2.14494 84.216 1.97827C83.9494 1.8116 83.6494 1.72827 83.316 1.72827C82.9827 1.72827 82.6794 1.8116 82.406 1.97827C82.1394 2.13827 81.926 2.3716 81.766 2.67827C81.6127 2.97827 81.536 3.32827 81.536 3.72827C81.536 4.12827 81.6127 4.4816 81.766 4.78827C81.926 5.08827 82.1394 5.3216 82.406 5.48827C82.6794 5.64827 82.9827 5.72827 83.316 5.72827ZM92.7912 3.58827C93.1778 3.73494 93.4812 3.95494 93.7012 4.24827C93.9212 4.5416 94.0312 4.87827 94.0312 5.25827C94.0312 5.6916 93.8845 6.06827 93.5912 6.38827C93.2978 6.70827 92.9012 6.95494 92.4012 7.12827C91.9012 7.29494 91.3512 7.37827 90.7512 7.37827C90.2778 7.37827 89.7945 7.3216 89.3012 7.20827C88.8145 7.09494 88.3478 6.92494 87.9012 6.69827L88.4912 5.31827C88.8045 5.47827 89.1378 5.6016 89.4912 5.68827C89.8512 5.76827 90.1978 5.80827 90.5312 5.80827C90.9712 5.80827 91.3312 5.73827 91.6112 5.59827C91.8912 5.4516 92.0312 5.24827 92.0312 4.98827C92.0312 4.7816 91.9445 4.62827 91.7712 4.52827C91.5978 4.42827 91.3645 4.37827 91.0712 4.37827H89.2812V2.92827H90.9112C91.1778 2.92827 91.3845 2.87494 91.5312 2.76827C91.6778 2.6616 91.7512 2.51827 91.7512 2.33827C91.7512 2.1116 91.6378 1.93827 91.4112 1.81827C91.1845 1.6916 90.8912 1.62827 90.5312 1.62827C90.2378 1.62827 89.9278 1.6716 89.6012 1.75827C89.2745 1.83827 88.9645 1.95494 88.6712 2.10827L88.0912 0.608271C88.8378 0.248271 89.6578 0.0682713 90.5512 0.0682713C91.1245 0.0682713 91.6545 0.151605 92.1412 0.318271C92.6345 0.478271 93.0245 0.711604 93.3112 1.01827C93.6045 1.32494 93.7512 1.68827 93.7512 2.10827C93.7512 2.43494 93.6645 2.72827 93.4912 2.98827C93.3245 3.2416 93.0912 3.4416 92.7912 3.58827ZM100.362 4.45827H98.6718V6.10827H97.1318V4.45827H95.4318V2.99827H97.1318V1.34827H98.6718V2.99827H100.362V4.45827Z" fill="#11448C"/>
</svg>
