<svg width="100" height="77" viewBox="0 0 100 77" fill="none" xmlns="http://www.w3.org/2000/svg">
<g clip-path="url(#clip0)">
<rect x="34.7734" y="43.6581" width="13.5" height="15.0232" fill="url(#paint0_linear)"/>
<path d="M34.3223 61.5535L32.0723 65.0884H43.3223V61.5535H34.3223Z" fill="url(#paint1_linear)"/>
<path d="M53.9084 65.2283V39.1975H83.1134L79.2153 45.0437H60.2197V65.2283H53.9084Z" fill="url(#paint2_linear)"/>
<path d="M87.0113 58.5822C91.2145 58.5822 94.6219 55.7168 94.6219 52.1822C94.6219 48.6476 91.2145 45.7822 87.0113 45.7822C82.808 45.7822 79.4006 48.6476 79.4006 52.1822C79.4006 55.7168 82.808 58.5822 87.0113 58.5822Z" fill="url(#paint3_linear)"/>
<path d="M63.2455 45.0657H60.8503V65.045H63.2455V45.0657Z" fill="#3455A2"/>
<path d="M37.141 39.1975L17.7742 65.1667H30.9535L33.7998 60.9206H44.1329V65.1667H52.7335V39.1975H37.141ZM37.141 56.059L44.1329 45.7206V56.059H37.141Z" fill="#3455A2"/>
<path d="M91.0338 59.7514C90.5388 59.7514 90.0438 59.8129 89.5488 59.8745L89.6106 59.7514C88.6825 59.7514 87.3831 59.7514 85.8363 59.7514C81.9381 59.7514 77.6688 57.6591 77.6688 52.3052C77.6688 46.9514 81.1956 44.4283 86.1456 44.4283C91.0956 44.4283 94.8081 44.4283 94.8081 44.4283L98.6444 39.1976C98.6444 39.1976 92.0856 39.1976 83.3613 39.1976C74.6369 39.1976 68.5113 43.136 68.5113 52.5514C68.5113 61.9668 76.06 65.4745 82.9281 65.4745H91.5288C92.9519 65.5975 94.0656 66.7668 94.0656 68.1822C94.0656 69.4745 93.1375 70.5822 91.9 70.8283H16.7219C16.7219 70.7668 16.7219 70.7668 16.7219 70.7052H13.69V70.6437C11.5863 70.5822 9.85376 68.9822 9.73001 66.8898V66.3975C9.73001 66.2745 9.73001 66.0898 9.79188 65.9668H9.73001V61.3514V43.8804H10.7819V30.0897H0.57251V43.8189H1.62438V69.1052C1.62438 72.9206 4.40876 76.0591 8.12126 76.6129V76.736H89.92C90.2913 76.7975 90.6625 76.7975 91.0338 76.7975C95.7981 76.7975 99.6344 72.9822 99.6344 68.2437C99.6344 63.5052 95.7363 59.7514 91.0338 59.7514Z" fill="#3455A2"/>
<path d="M6.06706 27.7512C4.25397 27.7512 1.92285 26.4256 1.92285 21.007C1.92285 16.5302 3.65483 15.0535 4.17285 10.5186C4.69088 5.98374 4.46118 3.44885 4.46118 3.44885C4.46118 3.44885 10.4729 11.6233 10.4729 20.6814C10.4729 27.9256 7.51753 27.693 6.06706 27.7512Z" fill="url(#paint4_linear)"/>
</g>
<defs>
<linearGradient id="paint0_linear" x1="41.5234" y1="43.6581" x2="41.5234" y2="58.6813" gradientUnits="userSpaceOnUse">
<stop stop-color="#99A4DF"/>
<stop offset="1" stop-color="#EDF0FF"/>
</linearGradient>
<linearGradient id="paint1_linear" x1="37.6973" y1="61.5535" x2="37.6973" y2="65.0884" gradientUnits="userSpaceOnUse">
<stop stop-color="#99A4DF"/>
<stop offset="1" stop-color="#EDF0FF"/>
</linearGradient>
<linearGradient id="paint2_linear" x1="68.5109" y1="39.1975" x2="68.5109" y2="65.2283" gradientUnits="userSpaceOnUse">
<stop stop-color="#99A4DF"/>
<stop offset="1" stop-color="#EDF0FF"/>
</linearGradient>
<linearGradient id="paint3_linear" x1="87.0113" y1="45.7822" x2="87.0113" y2="58.5822" gradientUnits="userSpaceOnUse">
<stop stop-color="#99A4DF"/>
<stop offset="1" stop-color="#EDF0FF"/>
</linearGradient>
<linearGradient id="paint4_linear" x1="6.19785" y1="3.44885" x2="6.19785" y2="27.7512" gradientUnits="userSpaceOnUse">
<stop stop-color="#99A4DF"/>
<stop offset="1" stop-color="#EDF0FF"/>
</linearGradient>
<clipPath id="clip0">
<rect width="99" height="76" fill="white" transform="translate(0.57251 0.797607)"/>
</clipPath>
</defs>
</svg>
