<svg width="168" height="828" viewBox="0 0 168 828" fill="none" xmlns="http://www.w3.org/2000/svg">
<g opacity="0.14">
<path opacity="0.7" d="M2.76579 630.144L2.50032 629.947L2.46996 629.947L2.46995 475.466L76.3362 475.466L76.3398 475.466L231.81 476.016L296.451 522.194L296.451 572.511L249.17 572.511L248.17 572.511L248.17 573.511L248.17 690.484L248.17 691.019L248.615 691.316L296.451 723.239L296.451 848.195L2.76579 630.144ZM193.334 653.49L194.892 654.539L194.892 652.66L194.892 573.511L194.892 572.511L193.892 572.511L76.3398 572.511L73.0641 572.511L75.7813 574.341L193.334 653.49Z" stroke="#3D576C" stroke-width="2"/>
<mask id="path-2-inside-1" fill="white">
<path fill-rule="evenodd" clip-rule="evenodd" d="M1.36572 476.151L296.647 476.151L296.647 379.491L67.8389 379.491L67.8389 291.252C27.7247 264.755 1.36572 219.214 1.36572 167.779L1.36571 145.546L1.36572 476.151Z"/>
</mask>
<path d="M296.647 476.151L296.647 478.151L298.647 478.151L298.647 476.151L296.647 476.151ZM1.36572 476.151L-0.634277 476.151L-0.634277 478.151L1.36572 478.151L1.36572 476.151ZM296.647 379.491L298.647 379.491L298.647 377.491L296.647 377.491L296.647 379.491ZM67.8389 379.491L65.8389 379.491L65.8389 381.491L67.8389 381.491L67.8389 379.491ZM67.8389 291.252L69.8389 291.252L69.8389 290.176L68.9412 289.583L67.8389 291.252ZM1.36572 167.779L3.36572 167.779L1.36572 167.779ZM296.647 474.151L1.36572 474.151L1.36572 478.151L296.647 478.151L296.647 474.151ZM294.647 379.491L294.647 476.151L298.647 476.151L298.647 379.491L294.647 379.491ZM67.8389 381.491L296.647 381.491L296.647 377.491L67.8389 377.491L67.8389 381.491ZM65.8389 291.252L65.8389 379.491L69.8389 379.491L69.8389 291.252L65.8389 291.252ZM-0.634284 167.779C-0.634282 219.912 26.0842 266.069 66.7366 292.921L68.9412 289.583C29.3652 263.442 3.36572 218.516 3.36572 167.779L-0.634284 167.779ZM-0.634292 145.546L-0.634284 167.779L3.36572 167.779L3.36571 145.546L-0.634292 145.546ZM3.36572 476.151L3.36571 145.546L-0.634292 145.546L-0.634277 476.151L3.36572 476.151Z" fill="#3D576C" mask="url(#path-2-inside-1)"/>
<path opacity="0.7" d="M231.069 124.858L231.069 89.5939L294.842 131.7L294.842 170.387C294.842 251.783 228.819 317.178 148.202 317.178C66.891 317.178 1.56115 251.089 1.56115 170.387L1.56114 2.056L65.3346 44.8416L65.3346 47.1101L65.3346 142.369C65.3347 188.449 102.167 225.32 148.202 225.32C194.237 225.32 231.069 188.449 231.069 142.369L231.069 124.858Z" stroke="#3D576C" stroke-width="2"/>
</g>
</svg>
