<svg width="1400" height="214" viewBox="0 0 1400 214" fill="none" xmlns="http://www.w3.org/2000/svg">
<path d="M88.48 134.579H60.58V217.659H-0.489999V0.658677H60.58V84.9787H90.03L141.8 0.658677H206.28L138.39 105.439L206.9 217.659H137.77L88.48 134.579ZM272.225 220.449C254.245 220.449 238.022 216.729 223.555 209.289C209.089 201.849 197.722 191.515 189.455 178.289C181.395 165.062 177.365 150.079 177.365 133.339C177.365 116.805 181.395 101.925 189.455 88.6987C197.722 75.472 208.985 65.242 223.245 58.0087C237.712 50.5687 254.039 46.8487 272.225 46.8487C290.412 46.8487 306.739 50.5687 321.205 58.0087C335.672 65.242 346.935 75.472 354.995 88.6987C363.055 101.719 367.085 116.599 367.085 133.339C367.085 150.079 363.055 165.062 354.995 178.289C346.935 191.515 335.672 201.849 321.205 209.289C306.739 216.729 290.412 220.449 272.225 220.449ZM272.225 173.639C282.559 173.639 291.032 170.125 297.645 163.099C304.259 155.865 307.565 145.945 307.565 133.339C307.565 120.939 304.259 111.225 297.645 104.199C291.032 97.172 282.559 93.6587 272.225 93.6587C261.892 93.6587 253.419 97.172 246.805 104.199C240.192 111.225 236.885 120.939 236.885 133.339C236.885 145.945 240.192 155.865 246.805 163.099C253.419 170.125 261.892 173.639 272.225 173.639ZM363.709 49.6387H422.299V111.949H482.749V49.6387H541.649V217.659H482.749V158.759H422.299V217.659H363.709V49.6387ZM700.415 96.4487H646.475V217.659H587.885V96.4487H533.635V49.6387H700.415V96.4487ZM760.746 46.8487C788.646 46.8487 809.933 53.2554 824.606 66.0687C839.28 78.6753 846.616 98.102 846.616 124.349V217.659H791.746V195.959C783.273 212.285 766.74 220.449 742.146 220.449C729.126 220.449 717.863 218.175 708.356 213.629C698.85 209.082 691.616 202.985 686.656 195.339C681.903 187.485 679.526 178.599 679.526 168.679C679.526 152.765 685.623 140.469 697.816 131.789C710.01 122.902 728.816 118.459 754.236 118.459H787.716C786.683 100.685 774.8 91.7987 752.066 91.7987C744.006 91.7987 735.843 93.142 727.576 95.8287C719.31 98.3087 712.283 101.822 706.496 106.369L686.656 66.3787C695.956 60.1787 707.22 55.4254 720.446 52.1187C733.88 48.6054 747.313 46.8487 760.746 46.8487ZM758.576 183.249C765.396 183.249 771.39 181.595 776.556 178.289C781.723 174.982 785.443 170.125 787.716 163.719V149.149H762.296C745.143 149.149 736.566 154.832 736.566 166.199C736.566 171.365 738.53 175.499 742.456 178.599C746.383 181.699 751.756 183.249 758.576 183.249ZM929.791 157.829H909.951V217.659H851.051V49.6387H909.951V111.639H931.031L972.261 49.6387H1034.57L978.151 130.239L1038.29 217.659H968.851L929.791 157.829ZM1176.25 96.4487H1122.31V217.659H1063.72V96.4487H1009.47V49.6387H1176.25V96.4487ZM1264.17 101.719C1286.29 101.925 1302.92 106.885 1314.08 116.599C1325.24 126.312 1330.82 140.159 1330.82 158.139C1330.82 176.945 1324.31 191.619 1311.29 202.159C1298.48 212.699 1280.29 217.865 1256.73 217.659H1168.07V49.6387H1226.66V101.719H1264.17ZM1345.08 49.6387H1403.67V217.659H1345.08V49.6387ZM1250.84 177.359C1265.72 177.359 1273.16 170.642 1273.16 157.209C1273.16 150.595 1271.3 145.739 1267.58 142.639C1263.86 139.539 1258.28 137.885 1250.84 137.679H1226.66V177.049L1250.84 177.359Z" fill="#d1dce6"/>
</svg>
