<svg width="1400" height="214" viewBox="0 0 1400 214" fill="none" xmlns="http://www.w3.org/2000/svg">
<path d="M207.21 0.0961766V217.096H145.83V132.466H62.13V217.096H0.750001V0.0961766H62.13V81.6262H145.83V0.0961766H207.21ZM333.196 219.886C315.216 219.886 298.993 216.166 284.526 208.726C270.059 201.286 258.693 190.953 250.426 177.726C242.366 164.5 238.336 149.516 238.336 132.776C238.336 116.243 242.366 101.363 250.426 88.1362C258.693 74.9095 269.956 64.6795 284.216 57.4462C298.683 50.0062 315.009 46.2862 333.196 46.2862C351.383 46.2862 367.709 50.0062 382.176 57.4462C396.643 64.6795 407.906 74.9095 415.966 88.1362C424.026 101.156 428.056 116.036 428.056 132.776C428.056 149.516 424.026 164.5 415.966 177.726C407.906 190.953 396.643 201.286 382.176 208.726C367.709 216.166 351.383 219.886 333.196 219.886ZM333.196 173.076C343.529 173.076 352.003 169.563 358.616 162.536C365.229 155.303 368.536 145.383 368.536 132.776C368.536 120.376 365.229 110.663 358.616 103.636C352.003 96.6095 343.529 93.0962 333.196 93.0962C322.863 93.0962 314.389 96.6095 307.776 103.636C301.163 110.663 297.856 120.376 297.856 132.776C297.856 145.383 301.163 155.303 307.776 162.536C314.389 169.563 322.863 173.076 333.196 173.076ZM591.15 129.056C610.37 135.463 619.98 148.69 619.98 168.736C619.98 183.823 614.09 195.706 602.31 204.386C590.53 212.86 573.17 217.096 550.23 217.096H455.68V49.0762H545.89C567.797 49.0762 584.743 52.8995 596.73 60.5462C608.923 68.1929 615.02 78.9395 615.02 92.7862C615.02 100.846 612.953 107.976 608.82 114.176C604.687 120.376 598.797 125.336 591.15 129.056ZM508.38 116.656H540.62C554.26 116.656 561.08 111.593 561.08 101.466C561.08 91.7529 554.26 86.8962 540.62 86.8962H508.38V116.656ZM544.96 178.966C559.22 178.966 566.35 173.8 566.35 163.466C566.35 153.133 559.427 147.966 545.58 147.966H508.38V178.966H544.96ZM732.503 219.886C714.523 219.886 698.299 216.166 683.833 208.726C669.366 201.286 657.999 190.953 649.733 177.726C641.673 164.5 637.643 149.516 637.643 132.776C637.643 116.243 641.673 101.363 649.733 88.1362C657.999 74.9095 669.263 64.6795 683.523 57.4462C697.989 50.0062 714.316 46.2862 732.503 46.2862C750.689 46.2862 767.016 50.0062 781.483 57.4462C795.949 64.6795 807.213 74.9095 815.273 88.1362C823.333 101.156 827.363 116.036 827.363 132.776C827.363 149.516 823.333 164.5 815.273 177.726C807.213 190.953 795.949 201.286 781.483 208.726C767.016 216.166 750.689 219.886 732.503 219.886ZM732.503 173.076C742.836 173.076 751.309 169.563 757.923 162.536C764.536 155.303 767.843 145.383 767.843 132.776C767.843 120.376 764.536 110.663 757.923 103.636C751.309 96.6095 742.836 93.0962 732.503 93.0962C722.169 93.0962 713.696 96.6095 707.083 103.636C700.469 110.663 697.163 120.376 697.163 132.776C697.163 145.383 700.469 155.303 707.083 162.536C713.696 169.563 722.169 173.076 732.503 173.076ZM939.306 219.886C920.706 219.886 904.07 216.166 889.396 208.726C874.723 201.286 863.253 190.953 854.986 177.726C846.926 164.5 842.896 149.516 842.896 132.776C842.896 116.036 846.926 101.156 854.986 88.1362C863.253 74.9095 874.723 64.6795 889.396 57.4462C904.07 50.0062 920.706 46.2862 939.306 46.2862C958.32 46.2862 974.75 50.4195 988.596 58.6862C1002.44 66.7462 1012.26 78.0095 1018.05 92.4762L972.476 115.726C964.83 100.64 953.67 93.0962 938.996 93.0962C928.456 93.0962 919.673 96.6095 912.646 103.636C905.826 110.663 902.416 120.376 902.416 132.776C902.416 145.383 905.826 155.303 912.646 162.536C919.673 169.563 928.456 173.076 938.996 173.076C953.67 173.076 964.83 165.533 972.476 150.446L1018.05 173.696C1012.26 188.163 1002.44 199.53 988.596 207.796C974.75 215.856 958.32 219.886 939.306 219.886ZM1193.33 95.8862H1139.39V217.096H1080.8V95.8862H1026.55V49.0762H1193.33V95.8862ZM1216.15 49.0762H1274.74V137.116L1345.11 49.0762H1399.36V217.096H1340.46V128.746L1270.71 217.096H1216.15V49.0762Z" fill="#F2F5F8"/>
</svg>
