<svg width="39" height="31" viewBox="0 0 39 31" fill="none" xmlns="http://www.w3.org/2000/svg">
<path d="M1.37451 6.70485V5.5034C1.37451 4.66761 2.05219 4.04077 2.83413 4.04077H16.3356" stroke="#8FB4F4" stroke-miterlimit="10" stroke-linecap="round" stroke-linejoin="round"/>
<path d="M37.6564 27.3908V28.749C37.6564 29.5847 36.9787 30.2116 36.1968 30.2116H2.83413C2.00006 30.2116 1.37451 29.5325 1.37451 28.749V10.675" stroke="#8FB4F4" stroke-miterlimit="10" stroke-linecap="round" stroke-linejoin="round"/>
<path d="M23.2166 4.04077H36.1446C36.9786 4.04077 37.6042 4.71985 37.6042 5.5034V23.4728" stroke="#8FB4F4" stroke-miterlimit="10" stroke-linecap="round" stroke-linejoin="round"/>
<path d="M11.0886 12.9998H28.4636" stroke="#8FB4F4" stroke-miterlimit="10" stroke-linecap="round" stroke-linejoin="round"/>
<path d="M11.0886 17.7012H13.0989" stroke="#8FB4F4" stroke-miterlimit="10" stroke-linecap="round" stroke-linejoin="round"/>
<path d="M15.8989 17.7012H17.9093" stroke="#8FB4F4" stroke-miterlimit="10" stroke-linecap="round" stroke-linejoin="round"/>
<path d="M20.7097 17.7012H22.72" stroke="#8FB4F4" stroke-miterlimit="10" stroke-linecap="round" stroke-linejoin="round"/>
<path d="M11.0886 22.3501H17.1914" stroke="#8FB4F4" stroke-miterlimit="10" stroke-linecap="round" stroke-linejoin="round"/>
<path d="M19.9921 22.3501H21.3562" stroke="#8FB4F4" stroke-miterlimit="10" stroke-linecap="round" stroke-linejoin="round"/>
<path d="M25.5106 4.35449V5.81712C25.5106 6.65291 24.8329 7.27975 24.0509 7.27975H15.0847C14.2507 7.27975 13.6251 6.60067 13.6251 5.81712V4.35449" stroke="#8FB4F4" stroke-miterlimit="10" stroke-linecap="round" stroke-linejoin="round"/>
<path d="M22.2784 0.541016C22.6954 0.541016 23.0082 0.854436 23.0082 1.27233V4.51101C23.0082 4.9289 22.6954 5.24232 22.2784 5.24232H17.274C16.857 5.24232 16.5442 4.9289 16.5442 4.51101V1.27233C16.5442 0.854436 16.857 0.541016 17.274 0.541016H20.6624" stroke="#8FB4F4" stroke-miterlimit="10" stroke-linecap="round" stroke-linejoin="round"/>
</svg>
