<svg width="32" height="48" viewBox="0 0 32 48" fill="none" xmlns="http://www.w3.org/2000/svg">
<path d="M30.7391 32.9971C30.3011 32.3298 29.5127 32.0796 28.6367 31.8293C28.1987 31.7459 27.8483 31.5791 27.4979 31.4123C27.1476 31.1621 26.8848 30.9953 26.5344 30.6616C25.9212 30.1612 25.2204 29.4939 24.3444 29.4939C23.4685 29.4939 22.7677 30.0778 22.1545 30.6616C21.8917 30.9118 21.5413 31.1621 21.1909 31.4123C20.8405 31.5791 20.4025 31.7459 20.0522 31.8293C19.2638 32.0796 18.3878 32.3298 17.9498 32.9971C17.5118 33.6643 17.687 34.4984 17.8622 35.2491C17.9498 35.6662 18.0374 36.0832 18.0374 36.5002C18.0374 36.9173 17.9498 37.3343 17.8622 37.7514C17.687 38.5021 17.5118 39.3361 17.9498 40.0034C18.3002 40.5039 18.7382 40.8375 19.3514 40.9209C19.7894 41.0043 20.5777 41.4214 21.0157 41.5882C21.3661 41.8384 22.3297 42.3389 22.6801 42.7559C23.1181 43.173 23.7313 43.4232 24.3444 43.4232C24.9576 43.4232 25.4832 43.0895 26.0088 42.7559C26.4468 42.4223 26.9724 41.9218 27.6731 41.5882C28.2863 41.2546 28.8995 41.0877 29.3375 40.9209C29.8631 40.7541 30.3887 40.4205 30.6515 40.0034C31.0894 39.3361 30.9143 38.5021 30.7391 37.7514C30.6515 37.3343 30.5639 36.9173 30.5639 36.5002C30.5639 36.0832 30.6515 35.6662 30.7391 35.2491C31.0019 34.4984 31.177 33.6643 30.7391 32.9971Z" stroke="#9CC2FF" stroke-miterlimit="10"/>
<path d="M13.4821 8.22461H18.9131L26.5341 15.8148V25.9072" stroke="#9CC2FF" stroke-miterlimit="10" stroke-linecap="round" stroke-linejoin="round"/>
<path d="M18.2128 40.3368H3.49643C1.91967 40.3368 0.605713 39.0857 0.605713 37.5843V10.8936C0.605713 9.39224 1.91967 8.14111 3.49643 8.14111H4.5476" stroke="#9CC2FF" stroke-miterlimit="10" stroke-linecap="round" stroke-linejoin="round"/>
<path d="M26.5345 15.8148H21.4538C19.8771 15.8148 18.5631 14.5636 18.5631 13.0623V8.22461" stroke="#9CC2FF" stroke-miterlimit="10" stroke-linecap="round" stroke-linejoin="round"/>
<path d="M21.3672 42.0051V47.0096L24.0827 45.0912L26.7982 46.9262V42.3388" stroke="#9CC2FF" stroke-miterlimit="10"/>
<path d="M7.61543 25.7408H5.42551C4.98752 25.7408 4.72473 25.4071 4.72473 25.0735V16.2322V1.55228C4.72473 1.13524 5.07512 0.88501 5.42551 0.88501H9.80536C10.2433 0.88501 10.5061 1.21864 10.5061 1.55228V24.9901C10.5061 25.4071 10.5937 26.0744 10.1557 26.0744" stroke="#9CC2FF" stroke-miterlimit="10"/>
<path d="M4.6366 25.0737L6.82653 30.1616C7.17691 30.9123 7.96529 30.9123 8.31568 30.1616L10.5056 25.5742" stroke="#9CC2FF" stroke-miterlimit="10"/>
<path d="M7.61489 16.3157H4.6366" stroke="#9CC2FF" stroke-miterlimit="10"/>
<path d="M12.0827 10.8105C12.6959 10.8105 13.1339 10.3934 13.1339 9.80956V3.38713C13.1339 2.80327 12.6959 2.38623 12.0827 2.38623H10.506" stroke="#9CC2FF" stroke-miterlimit="10"/>
<path d="M7.17529 18.4006V22.9881" stroke="#9CC2FF" stroke-miterlimit="10" stroke-linecap="round" stroke-linejoin="round"/>
</svg>
