<svg width="43" height="31" viewBox="0 0 43 31" fill="none" xmlns="http://www.w3.org/2000/svg">
<path d="M23.7085 10.3484H36.3486" stroke="#8FB4F4" stroke-miterlimit="10" stroke-linecap="round" stroke-linejoin="round"/>
<path d="M23.7087 14.7493H25.1712" stroke="#8FB4F4" stroke-miterlimit="10" stroke-linecap="round" stroke-linejoin="round"/>
<path d="M27.2083 14.7493H28.6707" stroke="#8FB4F4" stroke-miterlimit="10" stroke-linecap="round" stroke-linejoin="round"/>
<path d="M30.7078 14.7493H32.1703" stroke="#8FB4F4" stroke-miterlimit="10" stroke-linecap="round" stroke-linejoin="round"/>
<path d="M23.7085 19.1008H28.1482" stroke="#8FB4F4" stroke-miterlimit="10" stroke-linecap="round" stroke-linejoin="round"/>
<path d="M30.1858 19.1008H31.1782" stroke="#8FB4F4" stroke-miterlimit="10" stroke-linecap="round" stroke-linejoin="round"/>
<path d="M1.02539 10.9934C1.02539 14.4487 1.02539 22.3442 1.02539 26.2833C1.02539 31.2071 7.76323 30.1705 7.76323 26.2833C7.76323 23.5245 7.76323 11.5643 7.76323 3.71537C7.76323 2.71653 8.59821 1.46289 10.2144 1.46289C10.2144 1.46289 37.9683 1.46289 39.5287 1.46289C41.0892 1.46289 41.7501 2.82367 41.7501 3.71537C41.7501 4.60706 41.7501 22.054 41.7501 24.7492C41.7501 28.1184 39.9539 29.5903 36.8441 29.5903C34.3563 29.5903 12.6007 29.5903 4.39427 29.5903" stroke="#8FB4F4"/>
<rect x="12.376" y="9.64917" width="6.78334" height="10.1512" stroke="#9CC2FF"/>
</svg>
