<svg width="45" height="32" viewBox="0 0 45 32" fill="none" xmlns="http://www.w3.org/2000/svg">
<path d="M27.8623 5.94358V5.94358C27.8623 3.46007 25.849 1.44678 23.3655 1.44678H7.172C3.85829 1.44678 1.172 4.13307 1.172 7.44678V13.1255C1.172 16.4392 3.85829 19.1255 7.172 19.1255H18.064" stroke="#9CC2FF"/>
<rect x="18.126" y="8.90601" width="25.6903" height="16.6788" rx="5.5" stroke="#9CC2FF"/>
<path d="M7.1901 18.5571C7.16595 19.4029 6.98716 21.3119 6.46521 22.1818C5.94326 23.0517 5.23279 23.8732 4.72534 24.2115C5.98188 24.1632 8.46598 23.8636 10.0898 22.7617C11.7137 21.6598 12.8929 19.4995 13.2795 18.5571" stroke="#9CC2FF"/>
<path d="M37.8529 25.5164C37.877 26.3621 38.0558 28.2711 38.5778 29.141C39.0997 30.0109 39.8102 30.8325 40.3176 31.1708C39.0611 31.1224 36.577 30.8228 34.9532 29.7209C33.3293 28.619 32.1501 26.4588 31.7635 25.5164" stroke="#9CC2FF"/>
<circle cx="9.00244" cy="10.2861" r="1.08741" fill="#9CC2FF"/>
<circle cx="24.3337" cy="17.2454" r="1.08741" fill="#9CC2FF"/>
<circle cx="13.8579" cy="10.2861" r="1.08741" fill="#9CC2FF"/>
<circle cx="30.6762" cy="17.2454" r="1.08741" fill="#9CC2FF"/>
<circle cx="37.1279" cy="17.2454" r="1.08741" fill="#9CC2FF"/>
</svg>
