<svg width="41" height="41" viewBox="0 0 41 41" fill="none" xmlns="http://www.w3.org/2000/svg">
<path d="M20.5957 40.1967C31.3902 40.1967 40.1409 31.446 40.1409 20.6514C40.1409 9.8569 31.3902 1.1062 20.5957 1.1062C9.80112 1.1062 1.05042 9.8569 1.05042 20.6514C1.05042 31.446 9.80112 40.1967 20.5957 40.1967Z" stroke="#9CC2FF" stroke-miterlimit="10"/>
<path d="M7.03296 10.83C7.0635 10.9827 7.80005 10.268 8.74678 9.87098C9.6935 9.47397 9.96835 9.22966 9.96835 9.22966C9.96835 9.22966 10.4875 8.40509 11.1594 8.40509C11.8313 8.40509 10.854 8.83264 12.2283 8.40509C13.6025 7.97754 13.7247 7.85538 13.8469 7.54999C13.969 7.24459 13.9996 6.90866 13.9996 6.90866C13.9996 6.90866 13.8774 6.26733 13.2055 6.26733C12.5337 6.26733 11.0983 6.38949 10.3959 6.35895C9.6935 6.32841 10.2127 6.08409 9.02163 6.17571C7.83059 6.26733 8.62462 6.26733 7.31142 6.32841" stroke="#9CC2FF" stroke-miterlimit="10"/>
<path d="M1.63062 16.3758C1.78331 16.1926 1.539 16.0704 1.90547 15.7345C2.27194 15.3986 3.09651 14.1464 4.01269 13.9937C4.92887 13.841 5.08157 14.0854 5.29535 13.5967C5.47858 13.1386 3.4019 12.7416 5.29535 12.7722C7.18879 12.8027 7.55527 13.6273 7.21933 12.5279C7.79592 11.3696 6.25168 11.0925 7.66568 10.4512" stroke="#9CC2FF" stroke-miterlimit="10"/>
<path d="M4.68459 32.3176C4.68459 32.3176 5.14268 31.5236 5.44807 31.0044C5.75347 30.5158 6.45587 29.8744 6.45587 29.8744C6.45587 29.8744 6.60857 29.8439 6.45587 29.2026C6.30318 28.5613 5.87562 28.1642 6.2421 28.1948C6.60857 28.2253 7.0972 28.1948 7.0972 28.1948C7.0972 28.1948 7.64691 28.3169 7.67745 28.0115C7.70799 27.7061 7.64691 27.1259 7.76907 26.8816C7.89123 26.6373 7.83015 25.9043 8.37986 25.5378C8.92957 25.1714 8.96011 24.9881 8.96011 24.9881C8.96011 24.9881 9.11281 24.3773 8.62417 24.072C8.16608 23.7666 8.07446 23.6749 7.43314 23.5222C6.79181 23.3695 6.2421 22.7282 5.87562 22.4534C5.50915 22.1785 5.32591 21.812 4.89836 21.6899C4.47081 21.5372 4.50135 21.6288 4.10434 21.4456C3.67679 21.2623 3.27977 20.8348 3.066 20.7432C2.85222 20.6515 2.63844 20.224 2.24143 20.4072C1.84442 20.5905 1.44741 20.621 1.41687 20.8042C1.38633 20.9569 1.20309 21.0485 1.08093 20.9569" stroke="#9CC2FF" stroke-miterlimit="10"/>
<path d="M35.438 8.2832C35.438 8.2832 33.6972 8.83291 33.4529 8.71076C33.2086 8.5886 32.1092 7.97781 31.8649 8.49698C31.6206 9.01615 30.7349 9.19939 30.7349 9.19939L26.5816 9.04669C26.5816 9.04669 24.8713 9.99341 24.627 10.1766C24.3827 10.3599 23.8941 9.93233 23.6192 9.96287C23.3444 10.024 22.642 9.68802 22.642 9.68802C22.642 9.68802 20.8096 10.6653 20.1683 10.5431C19.5269 10.421 17.3892 9.71856 17.3892 9.71856L17.664 10.818L17.8473 12.4976L16.5035 12.8641C16.5035 12.8641 16.0455 13.2917 16.1676 13.4444C16.2898 13.5971 15.2514 14.1468 15.2514 14.1468C15.2514 14.1468 14.3658 14.8492 14.7628 15.0324C15.1598 15.2462 15.5263 15.3989 15.5263 15.3989L14.9155 16.8953L14.6406 17.6893L13.4496 18.5445L12.7472 19.8882V20.7433L13.4496 21.1708C13.4496 21.1708 13.6634 21.4457 13.7855 21.4762C13.9077 21.5068 17.4503 22.5757 17.4503 22.5757L18.3359 24.4996L17.8167 26.3625L18.794 28.2865L19.8934 29.2943L21.3899 26.2098L22.8557 23.9194L23.1001 22.6062L21.7563 20.9265L21.2372 19.0025C21.2372 19.0025 20.2599 18.575 19.985 18.3001C19.7102 17.9947 19.1605 17.1396 19.1605 17.1396L20.2904 16.254L21.8479 17.4756L21.8785 18.7888L23.0695 19.6744L24.3827 20.3463L26.8259 18.4834C26.8259 18.4834 25.0851 17.3229 24.9935 17.2618C24.9019 17.2007 26.5816 17.6893 26.5816 17.6893L26.7343 17.1091L28.3223 18.2391C28.3223 18.2391 28.9942 18.5139 29.1469 18.9109C29.2996 19.3079 29.9409 20.7128 29.9409 20.7128L31.5595 21.1708L32.6589 18.8193L33.8499 20.6211C33.8499 20.6211 33.8499 21.6595 34.0026 21.8427C34.1553 21.9954 35.835 22.6673 35.835 22.6673L37.8201 21.4762L38.2171 19.0636L38.9195 17.5061L39.5608 16.0402" stroke="#9CC2FF" stroke-miterlimit="10"/>
</svg>
