<svg width="774" height="658" viewBox="0 0 774 658" fill="none" xmlns="http://www.w3.org/2000/svg">
<g opacity="0.4">
<path d="M519.733 539.824C519.733 539.824 518.122 539.018 516.672 540.066C515.222 541.113 512.322 544.335 512.322 552.793C512.322 561.251 517.719 563.99 519.975 563.829C520.861 563.748 521.264 563.104 521.264 563.104" stroke="#748C9C" stroke-miterlimit="10"/>
<path d="M528.835 539.26L523.277 546.671V558.673L528.835 563.909L534.554 557.707L534.312 545.141L528.835 539.26Z" stroke="#748C9C" stroke-miterlimit="10"/>
<path d="M528.917 538.696H520.781L515.465 546.027V558.834L522.15 563.909H528.917" stroke="#748C9C" stroke-miterlimit="10"/>
<path d="M523.278 546.671H515.706" stroke="#748C9C" stroke-miterlimit="10"/>
<path d="M523.278 558.754H515.706" stroke="#748C9C" stroke-miterlimit="10"/>
<path d="M537.134 477.396C537.134 477.396 535.523 476.59 534.073 477.637C532.623 478.685 529.723 481.907 529.723 490.365C529.723 498.823 535.12 501.561 537.376 501.4C538.262 501.32 538.664 500.675 538.664 500.675" stroke="#748C9C" stroke-miterlimit="10"/>
<path d="M546.155 476.751L540.678 484.243V496.165L546.155 501.4L551.955 495.279L551.713 482.712L546.155 476.751Z" stroke="#748C9C" stroke-miterlimit="10"/>
<path d="M546.318 476.188H538.182L532.865 483.598V496.326L539.551 501.4H546.318" stroke="#748C9C" stroke-miterlimit="10"/>
<path d="M540.679 484.243H533.107" stroke="#748C9C" stroke-miterlimit="10"/>
<path d="M540.679 496.326H533.107" stroke="#748C9C" stroke-miterlimit="10"/>
<path d="M302.726 217.373C302.726 217.373 301.76 216.89 300.954 217.534C300.068 218.178 298.376 220.112 298.376 225.106C298.376 230.1 301.518 231.792 302.887 231.631C303.451 231.55 303.612 231.228 303.612 231.228" stroke="#748C9C" stroke-miterlimit="10"/>
<path d="M308.124 216.97L304.821 221.401V228.489L308.124 231.631L311.588 228.006L311.426 220.515L308.124 216.97Z" stroke="#748C9C" stroke-miterlimit="10"/>
<path d="M308.203 216.648H303.37L300.229 221.078V228.65L304.176 231.631H308.203" stroke="#748C9C" stroke-miterlimit="10"/>
<path d="M304.821 221.401H300.391" stroke="#748C9C" stroke-miterlimit="10"/>
<path d="M304.821 228.57H300.391" stroke="#748C9C" stroke-miterlimit="10"/>
<path d="M302.726 162.114C302.726 162.114 301.76 161.631 300.954 162.275C300.068 162.92 298.376 164.853 298.376 169.847C298.376 174.841 301.518 176.533 302.887 176.372C303.451 176.291 303.612 175.969 303.612 175.969" stroke="#748C9C" stroke-miterlimit="10"/>
<path d="M308.124 161.711L304.821 166.142V173.23L308.124 176.372L311.588 172.747L311.426 165.256L308.124 161.711Z" stroke="#748C9C" stroke-miterlimit="10"/>
<path d="M308.203 161.389H303.37L300.229 165.819V173.391L304.176 176.372H308.203" stroke="#748C9C" stroke-miterlimit="10"/>
<path d="M304.821 166.142H300.391" stroke="#748C9C" stroke-miterlimit="10"/>
<path d="M304.821 173.311H300.391" stroke="#748C9C" stroke-miterlimit="10"/>
<path d="M334.705 226.797C334.303 227.925 334.061 229.456 334.061 231.47C334.061 236.464 337.203 238.155 338.572 237.994C339.136 237.914 339.297 237.591 339.297 237.591" stroke="#748C9C" stroke-miterlimit="10"/>
<path d="M341.633 226.314L340.506 227.764V234.853L343.808 237.994L347.192 234.369L347.03 226.878L345.742 225.428" stroke="#748C9C" stroke-miterlimit="10"/>
<path d="M336.638 226.314L335.833 227.442V235.014L339.86 237.994H343.888" stroke="#748C9C" stroke-miterlimit="10"/>
<path d="M340.506 227.764H335.995" stroke="#748C9C" stroke-miterlimit="10"/>
<path d="M340.506 234.933H335.995" stroke="#748C9C" stroke-miterlimit="10"/>
<path d="M571.206 474.416C571.206 474.416 569.676 473.61 568.226 474.657C566.776 475.704 564.037 478.846 563.957 487.062C563.957 495.279 569.192 498.017 571.367 497.856C572.253 497.776 572.576 497.212 572.576 497.212" stroke="#748C9C" stroke-miterlimit="10"/>
<path d="M580.066 473.771L574.669 481.021V492.701L580.066 497.776L585.705 491.815L585.383 479.571L580.066 473.771Z" stroke="#748C9C" stroke-miterlimit="10"/>
<path d="M580.147 473.207H572.253L567.017 480.376V492.862L573.623 497.776H580.147" stroke="#748C9C" stroke-miterlimit="10"/>
<path d="M574.669 481.021H567.258" stroke="#748C9C" stroke-miterlimit="10"/>
<path d="M574.669 492.781H567.258" stroke="#748C9C" stroke-miterlimit="10"/>
<path d="M538.421 594.841C538.421 594.841 536.81 594.036 535.36 595.083C533.91 596.13 531.01 599.352 531.01 607.81C531.01 616.268 536.407 619.007 538.662 618.846C539.549 618.765 539.951 618.121 539.951 618.121" stroke="#748C9C" stroke-miterlimit="10"/>
<path d="M547.442 594.197L541.964 601.608V613.61L547.442 618.846L553.242 612.724L553 600.158L547.442 594.197Z" stroke="#748C9C" stroke-miterlimit="10"/>
<path d="M547.604 593.633H539.469L534.152 600.963V613.771L540.838 618.846H547.604" stroke="#748C9C" stroke-miterlimit="10"/>
<path d="M541.966 601.607H534.394" stroke="#748C9C" stroke-miterlimit="10"/>
<path d="M541.966 613.69H534.394" stroke="#748C9C" stroke-miterlimit="10"/>
<path d="M573.06 585.658C573.06 585.658 571.449 584.853 569.999 585.9C568.549 586.947 565.649 590.169 565.649 598.627C565.649 607.085 571.046 609.824 573.302 609.663C574.188 609.582 574.59 608.938 574.59 608.938" stroke="#748C9C" stroke-miterlimit="10"/>
<path d="M582.162 585.014L576.604 592.505V604.427L582.162 609.663L587.962 603.541L587.639 590.975L582.162 585.014Z" stroke="#748C9C" stroke-miterlimit="10"/>
<path d="M582.244 584.45H574.188L568.791 591.861V604.588L575.558 609.663H582.244" stroke="#748C9C" stroke-miterlimit="10"/>
<path d="M576.605 592.505H569.033" stroke="#748C9C" stroke-miterlimit="10"/>
<path d="M576.605 604.588H569.033" stroke="#748C9C" stroke-miterlimit="10"/>
<path d="M596.258 527.741L591.264 534.508V545.302L596.258 550.054L601.494 544.496L601.252 533.138L596.258 527.741Z" stroke="#748C9C" stroke-miterlimit="10"/>
<path d="M591.264 550.054H596.338" stroke="#748C9C" stroke-miterlimit="10"/>
<path d="M596.337 527.258H590.618L589.329 528.708" stroke="#748C9C" stroke-miterlimit="10"/>
<path d="M591.265 534.508H590.056" stroke="#748C9C" stroke-miterlimit="10"/>
<path d="M591.265 545.382H590.056" stroke="#748C9C" stroke-miterlimit="10"/>
<path d="M472.932 537.891L467.133 553.598L472.288 567.292L480.182 566.084L485.338 552.229L480.988 537.246L472.932 537.891Z" stroke="#748C9C" stroke-miterlimit="10"/>
<path d="M480.908 536.924L464.717 537.246L457.467 552.793L463.267 566.567L472.611 567.292" stroke="#748C9C" stroke-miterlimit="10"/>
<path d="M457.467 552.793L467.133 553.195" stroke="#748C9C" stroke-miterlimit="10"/>
<path d="M462.865 565.762C458.434 565.762 454.809 559.398 454.809 551.504C454.809 543.61 458.434 537.247 462.865 537.247H464.717" stroke="#748C9C" stroke-miterlimit="10"/>
<path d="M503.221 621.746L497.341 637.534L502.496 651.228L510.471 649.939L515.626 636.084L511.276 621.101L503.221 621.746Z" stroke="#748C9C" stroke-miterlimit="10"/>
<path d="M511.196 620.779L494.925 621.101L487.675 636.648L493.555 650.503L502.899 651.228" stroke="#748C9C" stroke-miterlimit="10"/>
<path d="M487.674 636.648L497.34 637.131" stroke="#748C9C" stroke-miterlimit="10"/>
<path d="M493.151 649.697C488.721 649.697 485.096 643.334 485.096 635.44C485.096 627.546 488.721 621.182 493.151 621.182H495.004" stroke="#748C9C" stroke-miterlimit="10"/>
<path d="M501.612 444.45L495.732 460.238L500.887 473.932L508.862 472.643L514.017 458.869L509.667 443.886L501.612 444.45Z" stroke="#748C9C" stroke-miterlimit="10"/>
<path d="M509.587 443.564L493.315 443.886L486.065 459.352L491.946 473.207L501.29 473.932" stroke="#748C9C" stroke-miterlimit="10"/>
<path d="M486.065 459.352L495.731 459.836" stroke="#748C9C" stroke-miterlimit="10"/>
<path d="M491.541 472.402C487.111 472.402 483.486 466.038 483.486 458.144C483.486 450.25 487.111 443.886 491.541 443.886H493.394" stroke="#748C9C" stroke-miterlimit="10"/>
<path d="M554.291 440.906L549.216 454.519L553.727 466.28L560.494 465.152L565.005 453.23L561.219 440.342L554.291 440.906Z" stroke="#748C9C" stroke-miterlimit="10"/>
<path d="M561.137 440.1L547.201 440.342L540.918 453.713L545.993 465.635L553.968 466.28" stroke="#748C9C" stroke-miterlimit="10"/>
<path d="M540.918 453.713L549.215 454.116" stroke="#748C9C" stroke-miterlimit="10"/>
<path d="M545.59 464.911C541.724 464.911 538.663 459.433 538.663 452.667C538.663 445.9 541.804 440.423 545.59 440.423H547.201" stroke="#748C9C" stroke-miterlimit="10"/>
<path d="M644.99 456.13L642.09 464.105L644.668 471.032L648.695 470.388L651.273 463.38L649.098 455.808L644.99 456.13Z" stroke="#748C9C" stroke-miterlimit="10"/>
<path d="M649.019 455.647L639.272 455.808L635.567 463.702L638.547 470.629L644.83 471.032" stroke="#748C9C" stroke-miterlimit="10"/>
<path d="M635.566 463.702L642.091 463.944" stroke="#748C9C" stroke-miterlimit="10"/>
<path d="M638.144 470.227C635.728 470.227 633.714 467.005 633.714 463.058C633.714 459.111 635.647 455.888 638.144 455.888H638.386" stroke="#748C9C" stroke-miterlimit="10"/>
<path d="M550.183 621.665L549.216 624.243L553.727 636.004L560.494 634.876L565.005 623.035L561.863 611.274H560.574" stroke="#748C9C" stroke-miterlimit="10"/>
<path d="M541.403 621.665L540.919 623.437L545.994 635.359L553.969 636.004" stroke="#748C9C" stroke-miterlimit="10"/>
<path d="M540.919 623.438L549.216 623.84" stroke="#748C9C" stroke-miterlimit="10"/>
<path d="M545.59 634.715C541.724 634.715 538.663 629.237 538.663 622.471" stroke="#748C9C" stroke-miterlimit="10"/>
<path d="M641.853 181.366L626.226 182.735L615.593 182.655L611.646 170.089L615.109 158.489L635.086 156.798" stroke="#748C9C" stroke-miterlimit="10"/>
<path d="M643.463 174.841L641.852 180.883H635.085L632.186 168.397L635.166 156.959L640.402 157.12L642.416 161.47" stroke="#748C9C" stroke-miterlimit="10"/>
<path d="M632.185 168.397L611.644 170.089" stroke="#748C9C" stroke-miterlimit="10"/>
<path d="M613.418 182.977L603.913 183.138L600.046 170.894L603.51 159.295L623.487 157.603" stroke="#748C9C" stroke-miterlimit="10"/>
<path d="M614.785 182.655L613.093 182.977L609.307 170.008L612.771 158.57L614.141 158.892" stroke="#748C9C" stroke-miterlimit="10"/>
<path d="M609.308 170.089L600.045 170.894" stroke="#748C9C" stroke-miterlimit="10"/>
<path d="M352.104 182.333L346.385 186.441V195.221L351.379 198.524L357.823 194.415V185.716L352.104 182.333Z" stroke="#748C9C" stroke-miterlimit="10"/>
<path d="M351.699 198.524L356.774 198.765L360.318 196.429" stroke="#748C9C" stroke-miterlimit="10"/>
<path d="M352.103 182.333L357.822 182.574L362.494 185.313L362.817 187.891" stroke="#748C9C" stroke-miterlimit="10"/>
<path d="M357.822 185.716H362.253" stroke="#748C9C" stroke-miterlimit="10"/>
<path d="M357.822 194.496H360.722" stroke="#748C9C" stroke-miterlimit="10"/>
<path d="M387.79 185.394L387.87 188.455L394.315 192.724L403.175 187.085V174.036L394.637 168.961L389.079 172.908" stroke="#748C9C" stroke-miterlimit="10"/>
<path d="M394.316 192.724L406.238 192.804L413.648 187.971V174.036L404.707 169.283L394.638 168.961" stroke="#748C9C" stroke-miterlimit="10"/>
<path d="M403.176 174.036L413.648 174.519" stroke="#748C9C" stroke-miterlimit="10"/>
<path d="M403.176 187.246L413.648 187.971" stroke="#748C9C" stroke-miterlimit="10"/>
<path d="M546.397 197.638L546.478 200.538L552.519 204.565L560.816 199.249V187.005L560.011 186.521" stroke="#748C9C" stroke-miterlimit="10"/>
<path d="M552.52 204.565L563.716 204.646L570.644 200.135V187.005L568.147 185.716" stroke="#748C9C" stroke-miterlimit="10"/>
<path d="M560.817 187.005L570.644 187.408" stroke="#748C9C" stroke-miterlimit="10"/>
<path d="M560.817 199.41L570.644 200.135" stroke="#748C9C" stroke-miterlimit="10"/>
<path d="M548.25 197.074H553.244C553.244 197.074 557.11 194.738 557.271 190.549C557.513 186.441 556.949 186.36 556.949 186.36" stroke="#748C9C" stroke-miterlimit="10"/>
<path d="M534.959 201.262V204.001L541.484 209.962L556.95 209.479L547.445 202.793L535.442 203.518" stroke="#748C9C" stroke-miterlimit="10"/>
<path d="M561.621 205.29L557.835 209.64" stroke="#748C9C" stroke-miterlimit="10"/>
<path d="M547.605 201.262L547.444 202.793" stroke="#748C9C" stroke-miterlimit="10"/>
<path d="M456.659 374.369V394.91" stroke="#748C9C" stroke-miterlimit="10"/>
<path d="M447.719 395.474V397.246H466.649V395.474" stroke="#748C9C" stroke-miterlimit="10"/>
<path d="M459.963 394.91V397.246" stroke="#748C9C" stroke-miterlimit="10"/>
<path d="M448.847 397.729V400.71" stroke="#748C9C" stroke-miterlimit="10"/>
<path d="M464.957 397.729V400.71" stroke="#748C9C" stroke-miterlimit="10"/>
<path d="M448.847 412.954V424.795" stroke="#748C9C" stroke-miterlimit="10"/>
<path d="M464.957 412.954V424.795" stroke="#748C9C" stroke-miterlimit="10"/>
<path d="M469.629 401.113H444.739V412.873H469.629V401.113Z" stroke="#748C9C" stroke-miterlimit="10"/>
<path d="M454.243 401.354V412.873" stroke="#748C9C" stroke-miterlimit="10"/>
<path d="M466.648 401.354V412.873" stroke="#748C9C" stroke-miterlimit="10"/>
<path d="M445.302 374.208V395.232H469.065V374.289L445.302 374.208Z" stroke="#748C9C" stroke-miterlimit="10"/>
<path d="M399.951 373.806V394.347" stroke="#748C9C" stroke-miterlimit="10"/>
<path d="M391.091 394.91V396.763H410.021V394.91" stroke="#748C9C" stroke-miterlimit="10"/>
<path d="M403.255 394.346V396.763" stroke="#748C9C" stroke-miterlimit="10"/>
<path d="M392.139 397.166V400.146" stroke="#748C9C" stroke-miterlimit="10"/>
<path d="M408.249 397.166V400.146" stroke="#748C9C" stroke-miterlimit="10"/>
<path d="M392.139 412.39V423.506" stroke="#748C9C" stroke-miterlimit="10"/>
<path d="M408.249 412.39V424.312" stroke="#748C9C" stroke-miterlimit="10"/>
<path d="M412.921 400.549H388.03V412.31H412.921V400.549Z" stroke="#748C9C" stroke-miterlimit="10"/>
<path d="M397.535 400.791V412.39" stroke="#748C9C" stroke-miterlimit="10"/>
<path d="M410.021 400.791V412.39" stroke="#748C9C" stroke-miterlimit="10"/>
<path d="M388.595 373.645V394.669H412.358V373.725L388.595 373.645Z" stroke="#748C9C" stroke-miterlimit="10"/>
<path d="M377.237 380.089L374.418 375.578H368.538L364.269 385.808L368.538 395.796H374.74L376.835 391.849" stroke="#748C9C" stroke-miterlimit="10"/>
<path d="M368.537 375.578H353.957L349.204 385.647L354.682 395.796H368.618" stroke="#748C9C" stroke-miterlimit="10"/>
<path d="M353.474 376.544L349.93 380.089V384.197" stroke="#748C9C" stroke-miterlimit="10"/>
<path d="M349.93 386.855V391.124L354.763 395.877" stroke="#748C9C" stroke-miterlimit="10"/>
<path d="M358.227 373.967H349.93L343.727 379.847V391.527L349.769 397.246H356.535L357.985 396.119" stroke="#748C9C" stroke-miterlimit="10"/>
<path d="M355.166 375.578L357.824 373.806L359.999 375.578" stroke="#748C9C" stroke-miterlimit="10"/>
<path d="M343.727 391.447L350.171 391.285" stroke="#748C9C" stroke-miterlimit="10"/>
<path d="M343.647 379.847H350.091" stroke="#748C9C" stroke-miterlimit="10"/>
<path d="M615.592 182.655L635.085 180.883" stroke="#748C9C" stroke-miterlimit="10"/>
<path d="M596.34 183.541L597.951 185.635V186.36" stroke="#748C9C" stroke-miterlimit="10"/>
<path d="M598.837 199.007V201.182L595.051 206.498L589.251 199.249V186.924L592.473 183.702" stroke="#748C9C" stroke-miterlimit="10"/>
<path d="M574.187 185.233L572.012 187.649V200.538L577.651 207.304L595.05 206.498" stroke="#748C9C" stroke-miterlimit="10"/>
<path d="M589.492 186.683L572.012 187.891" stroke="#748C9C" stroke-miterlimit="10"/>
<path d="M589.25 199.249L572.012 200.537" stroke="#748C9C" stroke-miterlimit="10"/>
<path d="M407.282 170.653L412.599 170.089L418.398 180.641L412.84 190.146L409.376 191.113" stroke="#748C9C" stroke-miterlimit="10"/>
<path d="M412.6 170.169L418.4 171.297L424.2 181.366L417.836 191.918L412.439 192.321L409.378 191.113" stroke="#748C9C" stroke-miterlimit="10"/>
<path d="M423.796 180.883L418.399 180.641" stroke="#748C9C" stroke-miterlimit="10"/>
<path d="M367.973 160.986V155.67L371.679 153.898H379.573L385.05 155.912V161.147L379.815 160.181H371.759L367.973 160.986Z" stroke="#748C9C" stroke-miterlimit="10"/>
<path d="M367.973 161.389L371.517 161.953" stroke="#748C9C" stroke-miterlimit="10"/>
<path d="M371.599 160.261V165.981" stroke="#748C9C" stroke-miterlimit="10"/>
<path d="M381.104 160.664V165.981" stroke="#748C9C" stroke-miterlimit="10"/>
<path d="M379.573 154.3V160.02" stroke="#748C9C" stroke-miterlimit="10"/>
<path d="M371.921 154.3V160.02" stroke="#748C9C" stroke-miterlimit="10"/>
<path d="M357.823 225.428V373.644" stroke="#748C9C" stroke-miterlimit="10"/>
<path d="M357.823 395.796V422.54" stroke="#748C9C" stroke-miterlimit="10"/>
<path d="M393.991 373.644C393.991 373.644 393.991 364.864 393.991 359.226C393.991 353.587 393.347 346.901 389.964 346.901C386.581 346.901 381.425 346.901 375.948 346.901C370.47 346.901 359.434 341.665 359.434 314.519C359.434 287.373 359.434 226.717 359.434 206.418C359.434 186.119 369.745 173.23 379.089 173.23C388.433 173.23 394.636 173.23 394.636 173.23C394.636 173.23 398.986 174.519 398.986 179.755C398.986 184.991 395.039 185.313 395.039 185.313C395.039 185.313 396.65 185.313 387.225 185.313C380.7 185.313 372.403 187.005 372.403 207.223C372.403 227.442 372.403 287.373 372.403 314.519C372.403 330.468 375.223 335.221 382.392 335.221C387.869 335.221 387.95 335.221 391.333 335.221C404.463 335.221 405.269 355.117 405.269 360.756C405.269 366.395 405.269 373.564 405.269 373.564" stroke="#748C9C" stroke-miterlimit="10"/>
<path d="M607.938 339.974C607.697 305.417 607.213 236.142 607.213 225.75C607.213 212.298 599.158 201.262 599.158 201.262" stroke="#748C9C" stroke-miterlimit="10"/>
<path d="M469.065 392.494C492.989 392.735 513.369 392.977 519.008 392.977C534.957 392.977 575.556 392.171 590.861 391.124C606.166 390.077 608.018 365.589 608.018 359.145C608.018 358.259 608.018 355.359 607.938 350.929" stroke="#748C9C" stroke-miterlimit="10"/>
<path d="M412.679 391.849C422.828 392.01 434.106 392.091 445.303 392.252" stroke="#748C9C" stroke-miterlimit="10"/>
<path d="M388.595 380.33C377.398 380.169 370.148 380.089 370.148 380.089C370.148 380.089 367.893 381.539 367.893 386.291C367.893 390.963 371.356 391.366 371.356 391.366C371.356 391.366 378.042 391.447 388.514 391.608" stroke="#748C9C" stroke-miterlimit="10"/>
<path d="M445.303 381.136C434.268 380.975 422.99 380.814 412.599 380.733" stroke="#748C9C" stroke-miterlimit="10"/>
<path d="M596.499 351.251C596.499 355.601 596.499 358.742 596.499 359.951C596.499 369.375 593.277 379.525 587.88 380.089C582.483 380.653 519.169 381.7 503.059 381.7C498.386 381.7 485.337 381.539 469.065 381.378" stroke="#748C9C" stroke-miterlimit="10"/>
<path d="M588.927 206.498C588.927 206.498 596.499 217.131 596.499 230.261C596.499 240.411 596.499 306.625 596.499 340.537" stroke="#748C9C" stroke-miterlimit="10"/>
<path d="M507.892 656.947L305.383 626.74C275.982 621.746 249.883 583.242 252.219 525.002C254.555 466.763 286.776 421.493 324.152 421.493L524.969 427.373" stroke="#748C9C" stroke-miterlimit="10"/>
<path d="M500.078 655.82C475.106 650.664 453.196 607.408 455.774 542.966C458.352 478.524 487.109 427.776 519.007 427.373" stroke="#748C9C" stroke-miterlimit="10"/>
<path d="M464.716 650.02C442.725 636.004 425.003 597.58 425.648 543.852C426.373 479.329 456.499 427.856 491.862 426.487" stroke="#748C9C" stroke-miterlimit="10"/>
<path d="M565.969 597.661C565.969 597.661 555.82 620.779 545.589 620.779C525.935 620.779 510.63 588.719 512.482 543.529C514.335 498.34 535.118 467.891 558.639 467.891C567.983 467.891 572.172 474.738 572.172 474.738" stroke="#748C9C" stroke-miterlimit="10"/>
<path d="M545.589 620.779C545.589 620.779 535.117 620.779 524.887 620.779C505.232 620.779 487.511 588.719 489.364 543.529C491.216 498.34 511.999 467.891 535.52 467.891C544.864 467.891 558.639 467.891 558.639 467.891" stroke="#748C9C" stroke-miterlimit="10"/>
<path d="M508.615 657.028C522.229 656.867 535.278 648.812 546.153 635.118" stroke="#748C9C" stroke-miterlimit="10"/>
<path d="M590.654 546.678C591.484 526.944 584.085 510.606 574.129 510.188C564.173 509.769 555.429 525.428 554.599 545.163C553.77 564.898 561.168 581.235 571.125 581.654C581.081 582.072 589.825 566.413 590.654 546.678Z" stroke="#748C9C" stroke-miterlimit="10"/>
<path d="M529.882 540.066C531.977 516.303 542.851 498.018 555.095 498.582C560.895 498.823 566.05 503.254 569.836 510.342" stroke="#748C9C" stroke-miterlimit="10"/>
<path d="M566.856 581.873C562.426 588.719 556.948 592.667 551.148 592.425C541.241 592.022 533.266 579.456 530.527 561.976" stroke="#748C9C" stroke-miterlimit="10"/>
<path d="M572.817 510.181H563.473C553.485 509.778 544.785 525.405 543.979 545.141C543.174 564.876 551.39 581.228 561.298 581.631H572.092" stroke="#748C9C" stroke-miterlimit="10"/>
<path d="M589.572 555.854C587.075 568.662 580.953 577.684 574.106 577.442C565.729 577.12 559.446 562.62 560.171 545.221C560.896 527.741 568.306 513.886 576.764 514.289C581.759 514.531 585.947 519.606 588.364 527.339" stroke="#748C9C" stroke-miterlimit="10"/>
<path d="M591.264 545.302C591.264 545.302 590.055 563.023 587.075 574.623C584.9 583.081 583.531 586.545 583.531 586.545" stroke="#748C9C" stroke-miterlimit="10"/>
<path d="M584.417 478.202L588.847 478.766L596.66 488.512L594.888 495.279L590.377 500.917L592.069 492.782L585.705 484.243V482.793L588.686 479.088" stroke="#748C9C" stroke-miterlimit="10"/>
<path d="M596.257 488.674L592.23 493.104" stroke="#748C9C" stroke-miterlimit="10"/>
<path d="M586.028 500.917L589.975 501.159" stroke="#748C9C" stroke-miterlimit="10"/>
<path d="M622.76 420.687V419.237L630.896 409.007L641.609 410.135L648.939 419.076L647.57 424.957L639.273 435.831L641.206 428.823L633.715 420.526L623.243 419.399" stroke="#748C9C" stroke-miterlimit="10"/>
<path d="M633.877 420.285L641.852 410.135" stroke="#748C9C" stroke-miterlimit="10"/>
<path d="M640.965 429.145L648.939 418.996" stroke="#748C9C" stroke-miterlimit="10"/>
<path d="M613.658 432.609V431.079L621.794 420.929L632.426 421.976L639.837 430.918L638.468 436.879L630.171 448.478L632.104 440.745L624.613 432.368L614.141 431.24" stroke="#748C9C" stroke-miterlimit="10"/>
<path d="M624.774 432.126L632.749 421.976" stroke="#748C9C" stroke-miterlimit="10"/>
<path d="M631.863 441.067L639.837 430.918" stroke="#748C9C" stroke-miterlimit="10"/>
<path d="M580.792 468.052L594.566 468.616L605.199 478.766L603.346 489.157L607.052 482.713L608.341 474.819L597.869 463.783L583.853 463.38L580.147 467.891L578.617 472.644" stroke="#748C9C" stroke-miterlimit="10"/>
<path d="M594.565 468.616L598.271 463.783" stroke="#748C9C" stroke-miterlimit="10"/>
<path d="M605.199 478.766L608.341 474.738" stroke="#748C9C" stroke-miterlimit="10"/>
<path d="M596.42 491.654L602.22 491.171" stroke="#748C9C" stroke-miterlimit="10"/>
<path d="M583.128 477.155L585.626 474.094C585.626 474.094 591.747 472.483 595.695 476.752C599.642 481.102 599.239 484.807 599.239 484.807L596.339 488.835" stroke="#748C9C" stroke-miterlimit="10"/>
<path d="M603.588 488.835C603.588 488.835 609.146 488.512 611.08 484.082C612.449 480.94 614.302 473.61 606.005 464.508C597.144 454.842 584.9 458.547 582.322 460.48C576.523 464.83 578.617 471.757 578.617 471.757" stroke="#748C9C" stroke-miterlimit="10"/>
<path d="M582.564 459.352L602.219 438.409C602.219 438.409 612.207 434.462 620.826 442.678C626.707 448.236 626.707 451.861 626.707 451.861" stroke="#748C9C" stroke-miterlimit="10"/>
<path d="M610.194 485.935L616.96 478.202" stroke="#748C9C" stroke-miterlimit="10"/>
<path d="M604.635 437.442C604.635 437.442 604.716 435.67 606.649 433.817C608.582 431.964 610.032 432.126 610.032 432.126L624.371 433.092L630.331 447.833L632.265 452.666" stroke="#748C9C" stroke-miterlimit="10"/>
<path d="M623.968 433.817C623.968 433.817 621.712 436.878 620.585 438.651C619.537 440.423 620.101 440.987 622.034 443.886C623.968 446.786 627.431 452.022 627.431 452.022" stroke="#748C9C" stroke-miterlimit="10"/>
<path d="M583.531 494.071C583.531 494.071 586.592 503.334 588.767 513.403C590.941 523.472 591.264 527.741 591.264 527.741" stroke="#748C9C" stroke-miterlimit="10"/>
<path d="M702.587 395.877C702.587 395.877 699.848 394.266 698.478 394.266C697.109 394.266 695.015 394.669 692.115 398.696C689.215 402.724 668.755 430.917 668.755 430.917H670.366C670.366 430.917 668.916 433.415 665.935 435.348C662.955 437.281 657.638 438.731 651.516 441.067C645.394 443.403 640.32 444.128 637.339 447.833C634.359 451.539 631.862 453.875 630.815 458.386C629.767 462.897 630.17 464.024 630.09 464.991C630.009 465.958 630.492 467.327 628.72 467.649C627.029 467.971 618.409 467.649 618.409 467.649C618.409 467.649 617.443 468.294 617.604 468.938C617.765 469.583 619.618 469.824 623.162 469.824C626.706 469.824 630.09 469.583 630.09 469.583C630.09 469.583 632.587 468.938 632.748 466.441C632.909 463.944 631.137 461.527 634.359 455.728C637.5 449.928 639.595 448.478 641.931 447.108C644.267 445.739 645.717 445.497 652.725 443.081C659.733 440.664 658.605 441.067 664.405 438.812C670.205 436.556 673.024 431.079 673.024 431.079H674.474C674.474 431.079 696.626 400.308 699.445 397.247C702.264 394.186 705.084 397.408 704.681 404.496C704.278 411.585 700.412 415.693 695.579 422.621C690.745 429.548 678.501 447.189 678.501 447.189L677.132 447.108C677.132 447.108 675.038 450.653 673.024 452.425C671.01 454.197 668.755 454.68 663.438 456.694C658.122 458.708 652.886 460.158 651.516 460.963C650.147 461.769 650.067 462.091 650.067 462.091" stroke="#748C9C" stroke-miterlimit="10"/>
<path d="M632.265 454.6H629.768C629.768 454.6 627.593 455.969 627.19 460.883C626.788 465.797 627.432 467.488 627.432 467.488" stroke="#748C9C" stroke-miterlimit="10"/>
<path d="M632.748 453.15C632.748 453.15 632.346 451.942 629.929 451.942C627.513 451.942 624.452 456.614 624.452 461.85C624.452 467.166 624.774 467.327 624.774 467.327" stroke="#748C9C" stroke-miterlimit="10"/>
<path d="M630.17 452.022L617.926 451.136C617.926 451.136 612.851 452.586 613.657 458.144C614.221 461.688 615.509 463.38 616.396 465.152C617.282 466.924 617.604 468.294 617.604 468.294" stroke="#748C9C" stroke-miterlimit="10"/>
<path d="M618.408 470.227V471.757L616.314 474.093L616.717 478.524L622.839 478.765L622.355 474.093L623.564 472.482" stroke="#748C9C" stroke-miterlimit="10"/>
<path d="M623.565 478.202C623.565 478.202 629.042 478.121 630.734 478.202C632.425 478.282 633.875 475.06 634.439 474.094C635.003 473.127 633.714 472.644 635.325 472.644C636.936 472.644 637.661 473.61 638.467 472.402C639.272 471.194 639.353 470.71 639.353 470.71" stroke="#748C9C" stroke-miterlimit="10"/>
<path d="M673.669 431.24L677.374 446.947" stroke="#748C9C" stroke-miterlimit="10"/>
<path d="M548.167 440.503C541.884 433.898 534.876 429.709 527.788 428.179C521.585 426.809 519.088 427.373 519.088 427.373" stroke="#748C9C" stroke-miterlimit="10"/>
<path d="M565.809 469.421C564.601 466.441 563.392 463.541 562.023 460.802" stroke="#748C9C" stroke-miterlimit="10"/>
<path d="M758.006 192.241C758.006 192.241 759.859 191.999 758.006 191.032C756.154 190.066 743.668 187.569 718.536 182.172C693.403 176.775 692.517 174.519 671.171 174.278C649.824 174.036 637.097 175.325 637.097 175.325C637.097 175.325 634.278 173.311 634.278 168.478C634.278 163.645 637.097 162.034 637.097 162.034C637.097 162.034 651.194 161.631 670.929 160.181C690.664 158.731 693.323 162.436 712.011 166.867C730.699 171.297 758.328 178.788 766.223 180.802C774.117 182.816 776.292 191.919 769.042 194.496C761.792 197.074 745.037 197.96 732.391 198.927C719.744 199.893 683.415 201.585 671.332 204.162C659.249 206.821 654.577 220.515 654.577 233.806C654.577 247.097 656.994 376.625 656.832 390.722C656.671 404.818 647.086 416.982 647.086 416.982" stroke="#748C9C" stroke-miterlimit="10"/>
<path d="M602.379 163.161L552.114 167.753C552.114 167.753 548.248 169.525 548.892 177.661C549.537 185.877 555.336 186.763 555.336 186.763L604.715 182.655" stroke="#748C9C" stroke-miterlimit="10"/>
<path d="M549.456 170.089L540.595 170.894C540.595 170.894 537.373 172.344 537.937 179.111C538.501 185.877 543.173 186.683 543.173 186.683L552.839 185.796" stroke="#748C9C" stroke-miterlimit="10"/>
<path d="M532.621 204.162C532.621 204.162 518.928 201.746 517.317 180.963C515.705 160.181 526.016 155.67 526.016 155.67C530.366 153.978 533.266 156.959 533.266 156.959" stroke="#748C9C" stroke-miterlimit="10"/>
<path d="M527.306 155.348L475.511 161.067C475.511 161.067 466.247 165.497 467.858 186.119C469.47 206.74 482.841 209.157 482.841 209.157L534.636 204.162" stroke="#748C9C" stroke-miterlimit="10"/>
<path d="M552.357 186.119C551.149 193.771 548.088 199.249 543.657 199.329C537.858 199.49 532.058 190.066 531.736 178.386C531.413 166.625 534.635 156.878 541.724 156.878C545.188 156.878 549.054 161.389 551.229 168.155" stroke="#748C9C" stroke-miterlimit="10"/>
<path d="M477.766 216.165C475.349 218.501 472.53 219.87 469.308 219.951C458.433 220.192 447.639 205.21 447.156 186.441C446.672 167.672 452.714 151.964 466.005 151.884C467.294 151.884 468.583 152.126 469.871 152.689" stroke="#748C9C" stroke-miterlimit="10"/>
<path d="M541.241 156.798H529.722C522.955 156.798 518.928 166.786 519.089 178.869C519.25 191.032 525.775 200.779 531.736 200.699L543.738 199.651" stroke="#748C9C" stroke-miterlimit="10"/>
<path d="M464.313 151.884L448.042 154.22C436.845 156.073 430.401 169.525 432.334 188.052C434.267 206.982 443.773 221.803 453.681 221.642L469.71 219.87" stroke="#748C9C" stroke-miterlimit="10"/>
<path d="M379.733 186.844C379.41 189.26 379.41 191.757 379.733 194.254C381.585 209.559 391.09 221.481 400.998 221.401L406.556 220.595" stroke="#748C9C" stroke-miterlimit="10"/>
<path d="M396.327 165.175C392.219 165.175 387.869 168.317 384.647 173.311" stroke="#748C9C" stroke-miterlimit="10"/>
<path d="M376.51 189.421C376.51 190.791 376.43 191.757 376.672 194.254C378.283 209.559 386.499 221.562 395.037 221.481L397.454 221.078" stroke="#748C9C" stroke-miterlimit="10"/>
<path d="M380.86 173.311C383.68 168.397 387.788 164.853 391.332 164.853C393.829 164.853 394.796 165.336 394.796 165.336" stroke="#748C9C" stroke-miterlimit="10"/>
<path d="M407.927 192.241C409.941 209.237 418.318 222.287 427.26 222.367L447.72 220.917" stroke="#748C9C" stroke-miterlimit="10"/>
<path d="M442 155.75L423.473 158.167C417.351 159.053 412.599 163.242 409.941 170.089" stroke="#748C9C" stroke-miterlimit="10"/>
<path d="M392.137 191.677C394.232 209.076 404.865 224.3 413.967 224.381L427.58 223.737C429.675 223.737 431.286 222.528 431.286 222.528" stroke="#748C9C" stroke-miterlimit="10"/>
<path d="M426.696 157.925C426.696 157.925 425.246 156.556 421.46 156.556L407.766 158.167C402.047 158.972 397.616 162.678 394.797 168.719" stroke="#748C9C" stroke-miterlimit="10"/>
<path d="M485.498 159.134L480.262 153.173L464.635 166.867V197.638L481.068 215.681L489.526 208.512" stroke="#748C9C" stroke-miterlimit="10"/>
<path d="M480.262 153.173H468.824L452.391 166.625V198.765L468.26 215.681H481.067" stroke="#748C9C" stroke-miterlimit="10"/>
<path d="M464.635 166.867L452.391 167.189" stroke="#748C9C" stroke-miterlimit="10"/>
<path d="M464.635 197.638L452.391 198.685" stroke="#748C9C" stroke-miterlimit="10"/>
<path d="M386.176 165.175L315.049 172.425C315.049 172.425 302.16 175.566 303.691 201.021C304.899 221.401 321.09 226.798 321.09 226.798L359.514 224.139" stroke="#748C9C" stroke-miterlimit="10"/>
<path d="M394.313 221.401L372.725 222.77" stroke="#748C9C" stroke-miterlimit="10"/>
<path d="M280.573 443.564C280.573 443.564 280.573 252.897 280.573 198.846C280.573 144.795 309.088 140.043 319.157 140.043C327.535 140.043 337.845 147.212 343.323 156.153C347.35 162.678 349.203 168.236 349.203 168.236" stroke="#748C9C" stroke-miterlimit="10"/>
<path d="M276.466 437.684C276.466 437.684 276.466 252.816 276.466 198.846C276.466 144.876 304.981 140.043 315.05 140.043" stroke="#748C9C" stroke-miterlimit="10"/>
<path d="M292.011 395.877C295.659 395.877 298.616 391.549 298.616 386.211C298.616 380.872 295.659 376.544 292.011 376.544C288.363 376.544 285.406 380.872 285.406 386.211C285.406 391.549 288.363 395.877 292.011 395.877Z" stroke="#748C9C" stroke-miterlimit="10"/>
<path d="M289.514 377.189C291.85 378.639 293.461 382.102 293.461 386.211C293.461 390.319 291.85 393.783 289.514 395.232" stroke="#748C9C" stroke-miterlimit="10"/>
<path d="M740.043 186.763C740.043 186.763 688.65 189.744 671.17 192.643C653.69 195.624 643.621 209.962 643.621 235.336C643.621 260.71 644.749 371.711 644.749 382.908C644.749 394.105 643.541 400.066 641.849 403.288C640.158 406.51 638.385 409.49 638.385 409.49" stroke="#748C9C" stroke-miterlimit="10"/>
<path d="M451.505 373.644C451.505 373.644 451.263 339.007 477.282 339.007C503.3 339.007 512.725 340.376 549.215 340.376C585.705 340.376 591.988 341.424 607.938 340.135C623.887 338.765 627.351 328.052 627.351 299.617C627.351 271.182 627.351 242.666 627.351 218.662C627.351 194.657 599.641 198.685 598.191 198.846C596.741 199.007 593.358 199.088 593.358 199.088C593.358 199.088 590.78 198.04 590.78 192.402C590.78 186.682 594.485 186.844 594.485 186.844C594.485 186.844 587.477 186.844 607.696 186.844C627.915 186.844 638.789 201.343 638.789 219.709C638.789 229.214 638.789 291.642 638.789 316.372C638.789 341.101 622.357 351.251 601.977 351.251C581.597 351.251 488.801 350.848 478.732 350.848C468.663 350.848 465.441 359.145 464.635 363.978C463.83 368.811 462.621 374.853 462.621 374.853" stroke="#748C9C" stroke-miterlimit="10"/>
<path d="M280.573 437.684C280.573 437.684 279.687 437.684 277.754 437.684C275.901 437.684 273.082 440.503 273.082 443.161C273.082 445.819 273.082 452.586 273.082 452.586" stroke="#748C9C" stroke-miterlimit="10"/>
<path d="M82.818 237.27C69.1241 223.656 60.2633 201.746 60.2633 176.936C60.2633 159.859 63.7271 144.07 70.8157 131.504C77.0182 120.469 85.7984 111.93 95.7869 106.936C101.989 103.875 108.595 102.425 116.247 101.136L125.913 100.089" stroke="#748C9C" stroke-miterlimit="10"/>
<path d="M138.722 85.9116C138.722 85.9116 131.795 87.5227 130.103 87.9254C128.412 88.3282 128.009 88.1671 127.203 92.5975C126.398 97.0278 125.754 100.653 125.995 103.069C126.237 105.486 131.795 111.125 131.795 111.125" stroke="#748C9C" stroke-miterlimit="10"/>
<path d="M126.155 103.633L134.13 102.264C134.13 102.264 126.8 125.866 126.477 162.034C126.075 198.121 132.922 228.248 132.922 228.248H125.027" stroke="#748C9C" stroke-miterlimit="10"/>
<path d="M142.266 240.25L142.105 228.086C142.105 228.086 135.258 198.04 135.66 161.872C136.063 125.785 142.991 102.103 142.991 102.103L143.796 90.5836" stroke="#748C9C" stroke-miterlimit="10"/>
<path d="M154.912 240.25L154.751 228.087C154.751 228.087 147.904 198.041 148.307 161.873C148.71 125.785 155.637 102.103 155.637 102.103L155.798 92.3558" stroke="#748C9C" stroke-miterlimit="10"/>
<path d="M173.198 96.303C162.484 104.842 149.435 130.296 148.951 158.167C148.468 186.199 161.759 215.44 166.834 220.031L167.076 242.989" stroke="#748C9C" stroke-miterlimit="10"/>
<path d="M196.316 99.0416C186.569 109.513 176.098 132.874 175.695 158.248C175.212 186.28 188.181 214.151 193.094 218.742L193.175 253.138" stroke="#748C9C" stroke-miterlimit="10"/>
<path d="M186.087 253.058H191.162L199.861 254.266V259.985L236.754 257.166L276.467 260.791L240.46 263.449" stroke="#748C9C" stroke-miterlimit="10"/>
<path d="M197.282 163.967V253.058" stroke="#748C9C" stroke-miterlimit="10"/>
<path d="M236.754 158.328V256.521" stroke="#748C9C" stroke-miterlimit="10"/>
<path d="M212.427 101.861L143.152 90.7448C140.493 90.342 138.641 87.7644 139.044 85.1061C139.527 82.0451 142.427 79.9508 145.488 80.4341L214.038 91.3892C216.696 91.792 218.549 94.3697 218.146 97.0279L218.065 97.8334C217.663 100.492 215.085 102.344 212.427 101.861Z" stroke="#748C9C" stroke-miterlimit="10"/>
<path d="M218.387 39.1913C195.833 37.1775 179.481 31.7 179.561 25.4974" stroke="#748C9C" stroke-miterlimit="10"/>
<path d="M290.079 27.028C289.999 33.0694 274.13 37.9831 252.22 39.5136" stroke="#748C9C" stroke-miterlimit="10"/>
<path d="M218.145 36.8553C199.859 35.2443 186.971 31.2972 186.971 26.7057C186.971 20.8254 208.962 16.1534 235.947 16.3145C262.932 16.4756 284.842 21.3893 284.761 27.2696C284.761 31.9416 271.148 35.8081 252.138 37.097" stroke="#748C9C" stroke-miterlimit="10"/>
<path d="M179.64 25.739C179.721 18.5699 204.451 12.9312 234.98 13.1729C264.301 13.4145 288.467 19.0532 290.158 25.9001V16.5561C290.239 16.3144 290.078 15.9117 290.078 15.5894C290.158 7.69531 265.509 1.00947 234.98 0.767815C204.451 0.526158 179.721 6.72869 179.64 14.6228C179.64 14.7034 179.64 14.7034 179.64 14.7839H179.56V25.739" stroke="#748C9C" stroke-miterlimit="10"/>
<path d="M188.261 162.436C188.261 162.436 184.637 157.361 196.317 154.945C207.997 152.528 231.921 151.884 252.059 152.931C272.197 153.978 275.661 154.945 275.661 154.945" stroke="#748C9C" stroke-miterlimit="10"/>
<path d="M186.087 115.716L185.442 154.301C185.442 154.301 185.764 155.67 186.489 158.328C187.134 160.986 188.1 161.792 188.1 161.792" stroke="#748C9C" stroke-miterlimit="10"/>
<path d="M188.582 162.436C188.582 162.436 189.227 164.289 191.402 163.967C193.577 163.725 189.227 162.597 201.229 160.906C213.151 159.214 226.442 158.248 235.947 158.248C245.452 158.248 253.91 161.067 253.91 161.067L257.696 163.725" stroke="#748C9C" stroke-miterlimit="10"/>
<path d="M275.66 256.522C275.66 256.522 268.169 250.802 263.577 245.003C257.777 237.672 246.742 220.676 246.742 199.571C246.742 178.466 255.522 166.464 263.738 161.148C268.571 158.006 289.515 151.884 289.515 151.884" stroke="#748C9C" stroke-miterlimit="10"/>
<path d="M276.143 225.589C273.646 218.823 271.632 211.573 270.827 202.712C269.055 182.091 273.485 169.767 279.043 164.611C280.654 163.081 283.151 162.517 283.151 162.517" stroke="#748C9C" stroke-miterlimit="10"/>
<path d="M213.394 262.08L230.31 263.449" stroke="#748C9C" stroke-miterlimit="10"/>
<path d="M209.688 267.718L209.849 259.582L213.473 261.193L213.393 267.557L209.688 267.96L204.371 267.557V259.985" stroke="#748C9C" stroke-miterlimit="10"/>
<path d="M236.109 266.752L236.351 258.294L240.137 259.985L239.976 266.59L236.19 266.993L230.631 266.59V258.696" stroke="#748C9C" stroke-miterlimit="10"/>
<path d="M264.625 261.677L264.544 267.799L260.839 268.121L255.522 267.799V262.321" stroke="#748C9C" stroke-miterlimit="10"/>
<path d="M260.838 267.96L260.919 261.999" stroke="#748C9C" stroke-miterlimit="10"/>
<path d="M200.101 88.9726C202.84 78.823 210.412 72.0566 217.501 72.0566C227.65 72.0566 235.303 84.0589 234.739 97.9945C234.175 111.849 225.475 122.805 215.406 122.321C209.446 122.08 204.371 117.73 201.471 111.447C198.41 104.761 198.813 99.2833 198.813 99.2833" stroke="#748C9C" stroke-miterlimit="10"/>
<path d="M208.479 89.9392C210.171 86.6366 212.99 84.5422 215.729 84.5422C220.562 84.5422 224.268 90.2615 223.946 96.9473C223.704 103.553 219.515 108.788 214.682 108.627C211.863 108.547 209.366 106.452 207.996 103.391C207.513 102.344 207.191 101.378 207.03 100.492" stroke="#748C9C" stroke-miterlimit="10"/>
<path d="M233.371 85.9116L244.246 92.5169C244.246 92.5169 252.059 97.2695 250.287 103.311C248.515 109.352 242.232 111.608 237.801 113.38C233.371 115.152 228.135 116.199 228.135 116.199" stroke="#748C9C" stroke-miterlimit="10"/>
<path d="M282.264 97.2695V85.9116C282.264 85.9116 273.645 78.823 244.405 76.9703C229.664 76.0036 227.891 76.9703 227.891 76.9703" stroke="#748C9C" stroke-miterlimit="10"/>
<path d="M205.256 79.2257C205.256 79.2257 200.423 80.1923 195.832 81.6423C191.24 83.0922 188.018 85.6699 188.018 85.6699V87.6032" stroke="#748C9C" stroke-miterlimit="10"/>
<path d="M282.668 90.5838C282.668 90.5838 284.843 90.2615 287.34 89.2144C289.837 88.1672 290.159 87.3617 290.159 87.3617C290.159 87.3617 291.368 86.4756 280.654 82.2869C274.854 80.0314 264.866 77.6954 254.636 75.8427C246.742 74.4733 240.136 73.9094 239.331 73.9094C237.639 73.9094 231.759 74.0705 228.859 74.4733C225.959 74.876 225.637 74.876 225.637 74.876" stroke="#748C9C" stroke-miterlimit="10"/>
<path d="M179.481 85.3477C179.481 85.3477 179.803 83.5755 191.886 80.434C203.969 77.2925 206.788 77.1313 206.788 77.1313" stroke="#748C9C" stroke-miterlimit="10"/>
<path d="M178.676 84.8644V64.3235C178.676 64.3235 179.562 62.9541 186.973 60.6987C194.384 58.4432 200.103 56.9127 214.924 54.8183C230.229 52.6434 235.304 52.6434 239.332 52.6434C243.359 52.6434 249.562 53.6101 262.611 56.2683C275.661 58.9265 285.972 63.7597 288.63 64.8874C291.288 65.9346 291.288 67.8678 291.288 67.8678V71.6538L290.08 72.1371V87.3615" stroke="#748C9C" stroke-miterlimit="10"/>
<path d="M178.676 69.479C178.676 69.479 179.562 68.1096 186.973 65.8542C194.384 63.5987 200.103 62.0682 214.924 59.9739C230.229 57.7989 235.304 57.799 239.332 57.799C243.359 57.799 249.562 58.7656 262.611 61.4238C275.661 64.082 285.408 68.9152 288.147 70.0429C290.805 71.0901 290.16 72.1373 290.16 72.1373" stroke="#748C9C" stroke-miterlimit="10"/>
<path d="M220.241 30.4917C220.241 30.4917 218.388 32.2639 218.468 36.1304C218.549 39.9969 218.468 45.2328 218.468 45.2328L219.354 45.8772V54.1741" stroke="#748C9C" stroke-miterlimit="10"/>
<path d="M251.495 34.197C251.495 34.197 252.139 35.3248 252.139 38.5468C252.139 41.7689 252.381 45.1521 252.139 45.8771C251.898 46.6021 251.092 47.4882 251.092 47.4882V54.0129" stroke="#748C9C" stroke-miterlimit="10"/>
<path d="M204.694 18.5699L221.287 30.4916C221.287 30.4916 223.543 27.1084 227.57 28.0751C231.518 29.0417 231.92 29.4444 235.384 30.8944C238.848 32.3443 242.875 31.861 242.875 31.861L220.24 16.7977" stroke="#748C9C" stroke-miterlimit="10"/>
<path d="M232.162 16.3145L243.278 23.9669" stroke="#748C9C" stroke-miterlimit="10"/>
<path d="M236.27 19.1337C236.27 19.1337 241.022 18.3282 246.258 20.1809C251.494 22.0336 251.655 23.0808 251.655 23.0808V25.9807" stroke="#748C9C" stroke-miterlimit="10"/>
<path d="M252.301 33.8748L280.656 31.5388" stroke="#748C9C" stroke-miterlimit="10"/>
<path d="M251.656 26.7057L273.324 24.6113" stroke="#748C9C" stroke-miterlimit="10"/>
<path d="M272.116 20.5836L271.069 21.8725C271.069 21.8725 271.875 25.6584 275.016 27.0278C278.158 28.3972 279.044 27.0278 279.044 27.0278L283.232 24.6112" stroke="#748C9C" stroke-miterlimit="10"/>
<path d="M218.872 45.6355C218.872 45.6355 221.047 42.1717 233.693 41.8495C246.34 41.5273 252.301 44.9105 252.301 44.9105" stroke="#748C9C" stroke-miterlimit="10"/>
<path d="M280.171 154.301C275.983 150.273 273.244 143.265 273.244 135.29C273.244 122.724 280.091 112.574 288.468 112.574C296.846 112.574 303.693 122.724 303.693 135.29C303.693 137.787 303.451 140.123 302.968 142.379" stroke="#748C9C" stroke-miterlimit="10"/>
<path d="M273.244 133.437C273.244 133.437 273.324 123.368 275.66 116.199C277.996 109.111 280.574 107.983 280.574 107.983C280.574 107.983 280.091 104.519 280.574 100.653C281.057 96.7055 282.185 97.511 282.185 97.511C282.185 97.511 287.985 98.7193 290.804 103.23C293.624 107.741 293.221 113.783 293.221 113.783" stroke="#748C9C" stroke-miterlimit="10"/>
<path d="M181.736 61.907L180.689 61.2626V56.5906L184.877 55.0601L190.758 55.3017L193.738 56.4294V58.4433" stroke="#748C9C" stroke-miterlimit="10"/>
<path d="M278.4 60.7793V58.0405L280.413 57.235H286.213L289.194 59.0071V65.693" stroke="#748C9C" stroke-miterlimit="10"/>
<path d="M166.914 220.031L192.772 218.581" stroke="#748C9C" stroke-miterlimit="10"/>
<path d="M131.23 219.145C131.23 219.145 126.639 224.462 125.672 226.314C124.706 228.167 124.867 229.295 125.109 232.436C125.35 235.578 125.672 237.833 125.672 237.833" stroke="#748C9C" stroke-miterlimit="10"/>
<path d="M99.8151 238.156C131.714 238.156 157.571 280.929 157.571 333.691C157.571 386.452 124.464 429.226 92.5654 429.226" stroke="#748C9C" stroke-miterlimit="10"/>
<path d="M184.958 252.333C206.224 266.913 220.965 298.731 220.965 335.704C220.965 369.939 204.694 399.824 183.589 415.612" stroke="#748C9C" stroke-miterlimit="10"/>
<path d="M96.7536 238.156C128.652 238.156 154.51 280.929 154.51 333.691C154.51 386.452 121.403 429.226 89.5039 429.226" stroke="#748C9C" stroke-miterlimit="10"/>
<path d="M27.9615 392.091C35.5335 407.154 45.8442 417.062 57.3631 418.834C89.8257 416.176 115.522 377.914 115.522 331.113C115.522 285.117 92.8062 245.566 59.2964 246.05C49.1468 246.211 39.1583 251.608 31.5864 262.966" stroke="#748C9C" stroke-miterlimit="10"/>
<path d="M15.3151 337.154C15.7178 349.64 17.49 361.32 20.3899 371.872" stroke="#748C9C" stroke-miterlimit="10"/>
<path d="M85.9592 330.388L22.0812 331.999C18.8592 331.999 16.2009 329.421 16.2009 326.119V269.49C16.2009 266.268 18.7786 263.61 22.0812 263.61L85.9592 259.582C89.1813 259.582 91.8396 262.16 91.8396 265.463V323.702C91.8396 327.005 89.1813 330.388 85.9592 330.388Z" stroke="#748C9C" stroke-miterlimit="10"/>
<path d="M16.201 274.725C15.7176 275.531 15.3149 276.417 14.8316 277.303C6.53467 293.575 0.976562 313.552 0.976562 332.723C0.976562 333.367 0.976562 333.931 0.976562 334.576C1.05711 335.14 1.29877 335.703 1.54043 336.106C2.66816 337.556 3.63479 337.153 8.06517 337.153C12.4955 337.153 14.5899 337.153 29.4921 337.153C44.3943 337.153 53.98 356.889 53.98 369.374C53.98 381.86 53.98 418.995 53.98 418.995L46.9719 415.128C50.8385 418.511 63.6463 429.305 65.0962 429.305C100.539 429.305 130.102 384.518 130.102 331.193C130.102 307.671 125.269 287.694 116.005 270.939C104.245 249.754 84.751 237.913 64.9351 237.913C46.8914 237.913 34.003 247.257 23.1285 263.77" stroke="#748C9C" stroke-miterlimit="10"/>
<path d="M68.8826 237.833H131.069C131.069 237.833 147.421 241.216 152.818 241.78C158.215 242.344 162.484 242.022 165.545 244.197C168.606 246.372 170.379 250.48 170.379 253.058C170.379 255.635 170.781 260.952 171.426 266.993C172.07 273.035 180.528 297.603 177.87 337.476C175.212 377.35 170.217 402.16 170.217 402.16C170.217 402.16 171.667 410.054 168.365 415.451C165.143 420.929 161.196 420.284 161.196 420.284L119.792 429.548L64.9355 429.226" stroke="#748C9C" stroke-miterlimit="10"/>
<path d="M215.487 368.247C215.487 368.247 223.784 368.247 238.686 368.247C256.408 368.247 266.718 356.567 266.718 335.382C266.718 322.896 266.718 268.121 266.718 268.121" stroke="#748C9C" stroke-miterlimit="10"/>
<path d="M161.114 274.323C161.114 274.323 173.922 293.978 173.922 338.926C173.922 368.247 161.114 390.077 161.114 390.077" stroke="#748C9C" stroke-miterlimit="10"/>
<path d="M117.214 429.226C117.214 429.226 124.463 428.501 132.116 423.587C139.768 418.673 142.104 415.532 142.104 415.532" stroke="#748C9C" stroke-miterlimit="10"/>
<path d="M77.7441 429.548V439.697L158.699 443.564L180.851 441.953V419.801" stroke="#748C9C" stroke-miterlimit="10"/>
<path d="M88.3762 344.404C89.5845 339.651 92.8066 336.349 96.3509 336.51C100.781 336.671 104.164 342.068 103.842 348.512C103.601 354.956 99.7341 360.031 95.3843 359.87C92.8066 359.79 90.5511 357.856 89.1817 354.956" stroke="#748C9C" stroke-width="0.5" stroke-miterlimit="10"/>
<path d="M93.9345 337.638C97.9622 337.799 100.943 342.712 100.701 348.512C100.459 354.393 96.9955 358.984 93.0485 358.823" stroke="#748C9C" stroke-width="0.5" stroke-miterlimit="10"/>
<path d="M76.2941 373.886C77.5024 369.134 80.7244 365.831 84.2688 365.992C88.6991 366.153 92.0823 371.55 91.7601 377.994C91.5185 384.439 87.6519 389.513 83.3021 389.352C80.7244 389.272 78.469 387.338 77.0996 384.439" stroke="#748C9C" stroke-width="0.5" stroke-miterlimit="10"/>
<path d="M81.931 367.2C85.9586 367.362 88.9391 372.275 88.6974 378.075C88.4557 383.955 84.992 388.547 81.0449 388.386" stroke="#748C9C" stroke-width="0.5" stroke-miterlimit="10"/>
<path d="M56.4783 390.883C57.6866 386.13 60.9087 382.827 64.453 382.989C68.8833 383.15 72.2665 388.547 71.9443 394.991C71.7027 401.435 67.8361 406.51 63.4863 406.349C60.9086 406.268 58.6532 404.335 57.2838 401.435" stroke="#748C9C" stroke-width="0.5" stroke-miterlimit="10"/>
<path d="M62.1168 384.116C66.1444 384.277 69.1248 389.191 68.8832 394.991C68.6415 400.871 65.1778 405.463 61.2307 405.301" stroke="#748C9C" stroke-width="0.5" stroke-miterlimit="10"/>
<path d="M32.6341 393.219C39.4407 393.219 44.9586 384.599 44.9586 373.967C44.9586 363.334 39.4407 354.715 32.6341 354.715C25.8274 354.715 20.3096 363.334 20.3096 373.967C20.3096 384.599 25.8274 393.219 32.6341 393.219Z" stroke="#748C9C" stroke-miterlimit="10"/>
<path d="M32.6335 354.715H42.3804C49.2273 354.715 54.0605 363.334 54.0605 373.967C54.0605 384.6 49.2273 393.219 42.3804 393.219H33.3585" stroke="#748C9C" stroke-miterlimit="10"/>
<path d="M143.877 403.368L137.835 412.551C137.835 412.551 139.366 411.907 140.333 412.551C141.38 413.115 141.219 415.612 143.877 418.915C146.535 422.218 149.918 421.734 151.368 421.895C152.818 422.057 155.476 421.493 155.476 421.493L160.148 420.446C160.148 420.446 153.221 421.332 149.596 418.915C145.971 416.498 145.166 414.324 144.441 411.021C143.716 407.799 144.199 406.107 144.36 404.979C144.36 403.771 143.877 403.368 143.877 403.368Z" stroke="#748C9C" stroke-miterlimit="10"/>
<path d="M153.06 390.077C153.06 390.077 152.174 394.507 154.026 397.085C155.879 399.663 159.101 400.066 159.665 403.61C160.229 407.154 160.39 409.732 160.39 409.732L170.298 409.49C170.298 409.49 170.942 408.04 170.54 406.429C170.137 404.818 170.379 403.449 168.526 400.71C166.673 398.052 163.29 395.796 161.84 394.105C160.39 392.413 161.84 389.997 161.84 389.997L153.06 389.755L147.179 399.421C147.179 399.421 150.079 398.374 153.14 399.743C156.201 401.113 157.49 402.724 157.893 404.496C158.296 406.268 158.135 408.443 158.135 408.443L160.229 409.732" stroke="#748C9C" stroke-miterlimit="10"/>
<path d="M168.848 409.732C168.365 414.887 165.143 418.915 161.276 418.915C157.088 418.915 153.624 414.162 153.624 408.363C153.624 405.624 154.349 403.127 155.557 401.274" stroke="#748C9C" stroke-miterlimit="10"/>
<path d="M156.765 242.344C156.765 242.344 152.254 241.458 146.777 244.68C143.474 246.614 142.105 250.722 141.702 251.608C141.218 252.574 138.882 253.058 138.882 253.058L144.843 260.388C144.843 260.388 145.649 258.938 145.488 256.119C145.246 253.219 145.81 250.561 148.227 248.225C150.643 245.889 155.315 245.647 155.315 245.647L163.048 245.889" stroke="#748C9C" stroke-miterlimit="10"/>
<path d="M146.857 263.449L155.718 275.371L162.162 274.565C162.162 274.565 169.734 264.416 170.298 262.724C170.862 261.113 170.459 255.233 170.459 255.233L170.056 253.541L159.181 254.024C159.181 254.024 158.134 254.669 158.295 256.28C158.537 257.971 159.101 260.388 156.765 262.966C154.429 265.624 152.334 265.221 150.321 264.738C148.307 264.335 146.857 263.449 146.857 263.449Z" stroke="#748C9C" stroke-miterlimit="10"/>
<path d="M155.717 264.013C154.267 262.08 153.301 259.421 153.301 256.36C153.301 250.48 156.845 245.727 161.195 245.727C164.659 245.727 167.639 248.788 168.686 252.977" stroke="#748C9C" stroke-miterlimit="10"/>
<path d="M161.84 242.989L168.768 243.875C168.768 243.875 173.037 244.277 174.729 249.191C176.018 252.816 175.937 258.293 175.937 258.293L180.851 258.213C180.851 258.213 180.69 254.588 179.884 250.641C179.079 246.694 175.615 245.163 175.615 245.163L181.979 246.05C181.979 246.05 185.523 250.802 185.926 256.521C186.328 262.241 186.087 263.69 186.57 266.026C187.053 268.282 187.617 271.262 187.617 271.262C187.617 271.262 191.886 268.282 192.853 264.093C193.82 259.904 193.82 259.905 193.82 259.905" stroke="#748C9C" stroke-miterlimit="10"/>
<path d="M175.695 245.163C175.695 245.163 173.198 244.519 171.989 245.002C171.748 245.083 171.748 245.083 171.748 245.083" stroke="#748C9C" stroke-miterlimit="10"/>
<path d="M115.521 237.833C115.521 237.833 124.866 239.042 133.324 243.875C139.446 247.338 142.426 249.916 142.426 249.916" stroke="#748C9C" stroke-miterlimit="10"/>
</g>
</svg>
