<svg width="107" height="109" viewBox="0 0 107 109" fill="none" xmlns="http://www.w3.org/2000/svg">
<circle cx="53.444" cy="54.2535" r="53.4352" fill="#EAF2FF"/>
<path d="M47.2081 62.0946C47.2081 59.6946 47.7361 57.7266 48.7921 56.1906C49.8481 54.6066 51.3841 52.8786 53.4001 51.0066C54.7921 49.7106 55.8241 48.6306 56.4961 47.7666C57.1681 46.8546 57.5041 45.8946 57.5041 44.8866C57.5041 43.4946 56.9041 42.3906 55.7041 41.5746C54.5521 40.7106 53.0401 40.2786 51.1681 40.2786C49.2481 40.2786 47.4961 40.7346 45.9121 41.6466C44.3761 42.5586 43.1281 43.8306 42.1681 45.4626L31.4401 39.7026C33.4081 36.3426 36.1921 33.7266 39.7921 31.8546C43.3921 29.9826 47.7361 29.0466 52.8241 29.0466C58.5361 29.0466 63.1201 30.2466 66.5761 32.6466C70.0801 34.9986 71.8321 38.3106 71.8321 42.5826C71.8321 44.5506 71.4961 46.3026 70.8241 47.8386C70.1521 49.3266 69.3361 50.5986 68.3761 51.6546C67.4641 52.6626 66.2641 53.8146 64.7761 55.1106C63.1441 56.5026 61.9441 57.7026 61.1761 58.7106C60.4081 59.6706 60.0241 60.7986 60.0241 62.0946H47.2081ZM53.6161 81.1026C51.2641 81.1026 49.3201 80.3826 47.7841 78.9426C46.2481 77.4546 45.4801 75.6546 45.4801 73.5426C45.4801 71.3826 46.2241 69.6066 47.7121 68.2146C49.2481 66.8226 51.2161 66.1266 53.6161 66.1266C56.0161 66.1266 57.9841 66.8226 59.5201 68.2146C61.0561 69.6066 61.8241 71.3826 61.8241 73.5426C61.8241 75.6546 61.0561 77.4546 59.5201 78.9426C57.9841 80.3826 56.0161 81.1026 53.6161 81.1026Z" fill="white"/>
</svg>
